<?xml version="1.0" encoding="UTF-8"?>
<svg width="171px" height="47px" viewBox="0 0 171 47" version="1.1" xmlns="http://www.w3.org/2000/svg" xmlns:xlink="http://www.w3.org/1999/xlink">
    <title>logo@1.5x</title>
    <defs>
        <filter id="filter-1">
            <feColorMatrix in="SourceGraphic" type="matrix" values="0 0 0 0 0.737255 0 0 0 0 0.870588 0 0 0 0 0.596078 0 0 0 1.000000 0"></feColorMatrix>
        </filter>
        <polygon id="path-2" points="9.09472935e-16 38.2298678 9.09472935e-16 1.05471187e-15 58.3375894 1.05471187e-15 58.3375894 38.2298678"></polygon>
    </defs>
    <g id="Page-1" stroke="none" stroke-width="1" fill="none" fill-rule="evenodd">
        <g id="logo@1.5x" transform="translate(-1294.000000, -32.000000)" filter="url(#filter-1)">
            <g transform="translate(1294.000000, 32.000000)">
                <g id="Combined-Shape-Clipped" transform="translate(0.000000, 4.018061)">
                    <mask id="mask-3" fill="white">
                        <use xlink:href="#path-2"></use>
                    </mask>
                    <g id="path-1"></g>
                    <path d="M38.4348606,23.9146097 C38.4126818,23.8412799 38.4131083,23.7939075 38.3902897,23.7744394 C37.8703677,23.3307831 37.2700476,23.0859177 36.5935945,23.0205914 C36.1547104,22.9781942 35.7755384,23.1144709 35.4434964,23.3928647 C35.3839975,23.4426165 35.3660839,23.543418 35.3114899,23.6567656 C36.3583714,24.0556452 37.3809416,24.095014 38.4348606,23.9146097 M5.97215079,0 C6.1606705,0.237727089 6.12932163,0.466585378 6.04935004,0.682897561 C5.88386215,1.12914959 5.7196538,1.57799737 5.51791213,2.00759337 C5.21060794,2.66237034 4.86555717,3.29876078 4.54801662,3.94877889 C4.28933516,4.47896005 4.04302265,5.01541426 3.79948249,5.55295004 C3.47746353,6.26396818 3.15565783,6.97520264 2.84771387,7.69249383 C2.21412558,9.16795923 1.7775873,10.7102651 1.4095047,12.2696596 C1.20669673,13.1297169 1.20754976,14.0114053 1.46239258,14.8749236 C1.54918842,15.1695408 1.66541381,15.4472856 1.85521306,15.6932326 C2.09683391,16.00602 2.39880665,16.2121655 2.77989796,16.309506 C3.41135368,16.4706585 3.90419196,16.2320662 4.15306357,15.6246616 C4.21768061,15.4663211 4.25329463,15.2960834 4.31471282,15.1362287 C4.35480524,15.031101 4.41323782,14.9322463 4.47209692,14.8359874 C4.48787798,14.8106789 4.54183215,14.7873171 4.56827609,14.795537 C4.6164723,14.8104625 4.68258216,14.8409626 4.69601738,14.880764 C4.73184466,14.9871896 4.76468633,15.1027003 4.76063443,15.2130195 C4.75231739,15.4414452 4.73674958,15.6722503 4.69281852,15.8957008 C4.60410336,16.3449812 4.50237949,16.7918821 4.39148555,17.235971 C4.24220524,17.8340742 3.9839503,18.3858866 3.6354874,18.8901103 C3.50710633,19.0761388 3.36251769,19.2658446 3.18487412,19.3980113 C2.94922448,19.5734405 2.8455813,19.7955931 2.81124682,20.0709585 C2.74940212,20.563285 2.66345932,21.0543137 2.63253697,21.548587 C2.54403507,22.966946 3.00488471,24.173968 4.04302265,25.1410998 C4.15349008,25.243848 4.27312759,25.340107 4.40001585,25.4205751 C5.6970485,26.2423451 7.09004706,26.7805298 8.62827404,26.8938774 C9.09701422,26.928271 9.56404834,27.0173916 10.032362,27.0206363 C11.0118541,27.027342 11.9911329,26.9630973 12.955697,26.7837745 C14.1586831,26.5601077 15.3586835,26.3167565 16.5542055,26.0548024 C18.2694363,25.6786355 19.9219694,25.0956742 21.5542429,24.4486845 C22.9244229,23.9057409 24.2423548,23.2539923 25.5216871,22.5204777 C25.8309106,22.3431017 26.1252061,22.1384704 26.4054266,21.9597965 C26.4233402,21.4319948 26.2213853,20.8183171 25.7925242,20.0488947 C25.4112197,19.3649155 25.3434038,19.2892063 24.4451628,18.5565569 C24.458598,18.1691418 24.4637162,17.7520919 24.4901602,17.3363399 C24.5264139,16.7650594 24.5780223,16.1948605 24.6255787,15.6244453 C24.6319765,15.549385 24.6486105,15.4741083 24.669723,15.4016437 C24.6946742,15.3164167 24.8292397,15.2642855 24.9049462,15.3129557 C24.983425,15.3635728 25.0610507,15.4193813 25.1271606,15.4849239 C25.7637345,16.1165555 26.3182042,16.817407 26.7423735,17.6106237 C27.2757308,18.6082555 27.492827,19.690898 27.4113626,20.818966 C27.352077,21.637924 27.1861626,22.4419563 26.9357982,23.2282511 C26.6758372,24.0439644 26.207097,24.6896562 25.4911913,25.1391529 C24.9953674,25.4504262 24.4888806,25.7459086 23.9753563,26.0262492 C23.3468862,26.369104 22.7062604,26.6885971 22.0255422,27.0418349 C21.9634843,27.5326472 21.9137952,28.0630447 21.8259331,28.5867365 C21.6885952,29.4061271 21.7329528,30.2265992 21.8178293,31.0410145 C21.9123024,31.9499583 22.25714,32.7803808 22.806065,33.5056755 C23.2549722,34.0990199 23.8689408,34.4686974 24.5724776,34.6815486 C25.5854511,34.9882792 26.599491,35.0172651 27.6357096,34.7669919 C29.1963286,34.3899597 30.7181347,33.9054205 32.180442,33.2346364 C33.298125,32.7219765 34.352044,32.0925081 35.3675767,31.397497 C35.8823805,31.0451245 36.3897203,30.6808548 36.8889563,30.3062021 C37.9821147,29.4861626 38.9515837,28.5231407 39.9227587,27.5635799 C40.0837682,27.4043741 40.2217459,27.2205088 40.3631357,27.0422675 C40.4467326,26.9371398 40.4330842,26.8307142 40.2989451,26.7173666 C39.9415254,26.8112461 39.5655523,26.928271 39.1816886,27.007225 C38.0697636,27.2362996 36.9518673,27.3671684 35.8196828,27.1532357 C35.235357,27.0427002 34.7017865,26.8350405 34.2509599,26.4227494 C33.9415232,26.1395968 33.7538565,25.8069087 33.7163232,25.3857488 C33.5728008,23.7813614 33.9428027,22.3175768 34.8811361,21.0095371 C35.1632759,20.6158489 35.5305055,20.3177707 35.9433722,20.0817741 C36.345576,19.8520506 36.7737972,19.7579548 37.2465893,19.8131144 C37.9403162,19.8944478 38.5619621,20.1453699 39.1164318,20.5580935 C39.9517618,21.1804237 40.5780993,21.9829419 41.0184762,22.9349318 C41.0730702,23.0532546 41.1408861,23.1655206 41.1950535,23.2665384 C41.4441384,23.307854 41.6290327,23.1938575 41.8107282,23.1047369 C42.861235,22.5899139 43.9138745,22.0785519 44.9515859,21.5379877 C45.7043852,21.1460301 46.4371383,20.713622 47.175436,20.2928948 C47.3837887,20.1741394 47.6126141,20.0806926 47.8224596,19.8607031 C47.6612368,19.8025151 47.5482103,19.7510328 47.4298523,19.7205328 C46.1528659,19.3921709 44.8731071,19.0752735 43.5993196,18.7352308 C43.2760211,18.6489222 42.9808726,18.6153938 42.6720756,18.7743833 C42.451354,18.8881635 42.2056812,18.9195288 41.9565964,18.9059011 L40.9046046,18.8533292 C40.7293463,18.843483 40.5542145,18.8321386 40.3793432,18.817862 C39.5858118,18.7527521 38.7980382,18.7999081 38.0153829,18.9268834 C37.7965806,18.9623586 37.5905738,19.0759225 37.3771029,19.1492523 C37.1781336,19.217607 37.0399427,19.0975537 37.0823809,18.8838373 C37.1192745,18.6971598 37.1649116,18.5100498 37.2295287,18.3315923 C37.4440658,17.7404111 37.6681995,17.1526909 37.8899874,16.5643217 C38.0010946,16.2692719 38.186842,16.0559881 38.4696215,15.8961334 C39.0477629,15.569502 39.6310224,15.2649344 40.2801785,15.1124344 C41.1822581,14.9004484 42.0775134,14.9707499 42.9633854,15.2041507 C43.9650563,15.4680516 44.9609693,15.7538 45.9624269,16.0179171 C47.2916614,16.3683429 48.6147115,16.746024 49.9676176,16.9967298 C51.3574173,17.2541413 52.7553208,17.4382229 54.1638872,17.5628188 C55.0687391,17.6428543 55.9699657,17.5757975 56.8724718,17.6058649 C57.1897991,17.6162479 57.509259,17.5558968 57.8280791,17.5336166 C57.939826,17.5258294 58.0603166,17.5117691 58.1631067,17.5448648 C58.234548,17.5680102 58.3200643,17.6603755 58.33222,17.7332728 C58.3499204,17.839482 58.3209174,17.9604005 58.2880757,18.0674751 C58.0750314,18.7596741 57.8555893,19.4497099 57.6384931,20.140611 C57.6327351,20.1587813 57.630176,20.1778167 57.623565,20.1957706 C57.4083881,20.7741894 57.3682957,20.7770015 56.8647945,20.7687816 C56.5090809,20.7629412 56.1512347,20.7893313 55.7976536,20.7599128 C55.1152293,20.7028064 54.4445342,20.8129093 53.7704269,20.8710973 C53.37718,20.9050583 52.9820136,20.9481044 52.5953776,21.0257605 C51.5039253,21.2446684 50.4372108,21.5494523 49.4246638,22.0303143 C48.2481217,22.5890486 47.0935451,23.1867192 45.9622136,23.8378189 C44.5879817,24.6288725 43.1745104,25.3496247 41.7778865,26.1010932 C41.6959956,26.1452209 41.615171,26.191728 41.5172857,26.2460224 C41.4965997,26.4554126 41.4876429,26.6635049 41.4541615,26.8677036 C41.194627,28.4506762 40.5657304,29.8411309 39.4744913,31.0314968 C38.2039026,32.4178416 36.7079006,33.4983209 35.1470683,34.5035236 C34.8610899,34.6876053 34.5672209,34.8597898 34.286574,35.0520913 C33.3008974,35.7278506 32.241647,36.2703615 31.1774916,36.8001101 C30.4165885,37.179089 29.6115411,37.4561849 28.7968971,37.6923978 C28.055827,37.9069795 27.3149702,38.1245896 26.5406319,38.2013804 C25.6801375,38.28704 24.865067,38.1845081 24.0630052,37.8258625 C23.446051,37.5500644 22.9257025,37.1598372 22.4324377,36.7135852 C21.9882221,36.3116772 21.6858229,35.8163223 21.4525191,35.2623468 C21.0618312,34.3341512 20.8654209,33.3719946 20.8797092,32.3641962 C20.8910118,31.5625432 20.8858937,30.7598087 20.9227872,29.9592373 C20.9571217,29.2151234 21.063324,28.4774989 21.2731694,27.7595587 C21.3038785,27.6548636 21.3211524,27.5462749 21.3418384,27.4526117 C21.1978895,27.3461861 21.1038429,27.4305479 21.0046781,27.4675373 C19.8921133,27.882424 18.7944765,28.3470626 17.663145,28.7005167 C15.9905657,29.2233433 14.2781073,29.5960492 12.5551993,29.9172727 C11.4398621,30.1251488 10.3142885,30.2566666 9.18700892,30.2255176 C7.19390351,30.1707906 5.30806666,29.6663506 3.6510552,28.4986975 C2.38984983,27.610087 1.69377706,26.3569905 1.57499259,24.7956492 C1.46687099,23.3744782 1.61871039,21.9773178 1.99383049,20.6039517 C2.07913353,20.2920296 2.15121459,19.9764301 2.23801043,19.6275185 L2.05217619,19.5213173 C2.02077203,19.5049416 1.98878339,19.4903766 1.95565738,19.4793447 C1.4306172,19.3045644 1.05869597,18.9537061 0.74648686,18.4981526 C0.181780768,17.6742195 0.0546792455,16.7369388 0.00776257619,15.7767291 C-0.044912048,14.6977639 0.179221677,13.6512456 0.38757434,12.6019152 C0.611494807,11.4738471 0.976378539,10.3912047 1.39628273,9.32824656 C1.89295965,8.07147278 2.41458771,6.82464936 2.94730516,5.58301743 C3.1492601,5.11275475 3.41817792,4.67212683 3.64636354,4.21289607 C4.18846433,3.12268267 4.72374087,2.02900827 5.26370908,0.937497001 C5.37332348,0.715993325 5.48826932,0.497301708 5.60641403,0.280340589 C5.68126744,0.142766041 5.78832275,0.038719881 5.97215079,0 Z" id="Combined-Shape" fill="#FFFFFF" fill-rule="nonzero" mask="url(#mask-3)"></path>
                </g>
                <path d="M88.2776799,27.0104888 C87.7999829,26.4108714 87.2615075,26.0176159 86.7019195,25.83202 C85.9578638,25.5849915 85.125946,25.9860343 84.8120308,26.7630276 C85.919904,27.2560031 87.0578465,27.2402123 88.2776799,27.0104888 M119.491766,27.34534 C120.286791,27.1502264 121.790257,26.6273999 122.13872,26.4238501 C122.084339,26.3686905 122.041261,26.3066089 121.983042,26.2683217 C121.526244,25.9667825 121.07819,25.6485873 120.603692,25.3786297 C120.2789,25.1936828 119.92276,25.0563245 119.567473,24.9382181 C119.35912,24.8689982 119.123471,24.8480159 118.903389,24.8607783 C118.500758,24.8839237 118.200705,25.0859593 118.046307,25.4662361 C118.267241,25.8886938 118.817872,26.6036056 119.491766,27.34534 M120.057326,21.6608722 C120.528625,21.8049361 120.98265,21.9881525 121.410658,22.2295569 C122.318496,22.7420005 123.170886,23.339671 123.934562,24.0550154 C124.222246,24.3245404 124.462801,24.6490087 124.705275,24.9637429 C124.899766,25.2161792 124.952867,25.51469 124.886117,25.8318037 C124.736624,26.5410913 124.592248,27.2514605 124.438276,27.9598829 C124.329941,28.4584825 124.04311,28.7758125 123.569252,28.9966672 C122.880643,29.3172419 122.159406,29.5277136 121.449045,29.7771216 C121.201239,29.8642954 120.952794,29.9501713 120.682597,30.0444834 L120.682597,30.3888524 L120.682597,30.3888524 C120.679185,30.7507427 120.681957,31.1130656 120.667456,31.4745233 C120.663404,31.5768389 120.585138,31.6410837 120.433725,31.6002007 C120.339465,31.1723352 120.125781,30.7784307 119.88544,30.399668 C119.647444,30.373278 119.449968,30.4485546 119.264007,30.5283738 C118.172982,30.9975549 117.078544,31.4602467 116.00138,31.9605768 C115.403618,32.2383216 114.831448,32.5751197 114.257785,32.9034816 C113.581546,33.2906804 113.008523,33.8186984 112.419292,34.3255178 C110.956132,35.5838058 109.799209,37.1127003 108.65295,38.6541409 C107.66514,39.9827304 106.613354,41.2585396 105.400985,42.3829303 C104.7192,43.0154272 103.947421,43.5285197 103.076477,43.8741865 C102.677898,44.032527 102.262473,44.0450731 101.852378,44.0357717 C100.928333,44.0150058 100.062081,43.8004241 99.3647286,43.1246648 C99.2836907,43.0461435 99.186232,42.9849271 99.0992229,42.9120299 C98.5673585,42.4681573 98.1591834,41.9299726 97.8708592,41.2935822 C97.3940152,40.2407908 97.1033451,39.1473327 97.0705035,37.982059 C97.0410739,36.9361896 97.2180777,35.9249301 97.5450016,34.9439544 C97.8520925,34.0220319 98.2112183,33.1182796 98.6842236,32.2651443 C98.8663456,31.9363498 99.0117873,31.5861404 99.1463528,31.2084593 C98.6712149,31.1602217 98.2577084,31.1470266 97.8555046,31.0719663 C96.9645144,30.9056222 96.3219693,30.3776042 95.9065435,29.5714087 C95.6685481,29.1100148 95.5563746,28.6049259 95.504553,28.088805 C95.4629678,27.6734856 95.4373769,27.2562194 95.4013363,26.7963397 C95.3055837,26.813861 95.2117503,26.8093184 95.1413753,26.8482546 C94.9099908,26.9756625 94.682445,27.1115066 94.4619366,27.2577336 C93.5948313,27.8329077 92.7121581,28.3801775 91.7842744,28.8504402 C91.751646,28.8670962 91.7264816,28.8986778 91.7002509,28.9213906 C91.7002509,29.1130432 91.7040895,29.302749 91.6996111,29.4920221 C91.6659164,30.9006471 91.4247221,32.2720663 90.8339986,33.5498224 C90.4004459,34.487103 89.7886099,35.3149298 89.0349576,36.0261642 C87.9415859,37.0579733 86.7479832,37.9597788 85.4780342,38.7482367 C84.2424198,39.5150634 82.9873989,40.2544185 81.7065738,40.9401281 C80.911123,41.3662631 80.0647036,41.7054406 79.218071,42.0193096 C78.1942213,42.3989374 77.1661065,42.7779164 76.098539,43.0206187 C75.4562072,43.1666294 74.8081174,43.2858174 74.1657855,43.4318281 C73.1378839,43.6654453 72.112968,43.9137717 71.0857062,44.1514987 C69.325478,44.5588146 67.5646101,44.9646162 65.8031025,45.3665243 C65.5832339,45.4167087 65.3576074,45.4426662 65.1339002,45.4731662 C65.0362282,45.4865775 64.9285331,45.4675421 64.9142448,45.3520314 C64.9037952,45.2670207 64.9178702,45.1443717 64.9716111,45.0937546 C65.0643782,45.0065808 65.1910532,44.9475276 65.3128233,44.9025346 C65.9843714,44.6539919 66.6525074,44.3929031 67.3334389,44.1735626 C69.1476212,43.5888708 70.9193653,42.891264 72.6655184,42.1283309 C74.7051139,41.2371247 76.7427902,40.3396455 78.7631926,39.4043116 C80.8703908,38.42896 82.9285398,37.3523742 84.8977604,36.1096607 C86.033357,35.3930185 87.1550919,34.6517166 88.1719041,33.7667835 C88.957545,33.083237 89.7011743,32.3527507 90.2908315,31.477119 C90.4062038,31.3060161 90.4595182,31.1351295 90.4149474,30.9400159 C90.3223936,30.5329164 90.2155516,30.1292778 90.0620061,29.7252067 C89.8442701,29.7109301 89.6821943,29.814111 89.5094557,29.8720826 C88.4843265,30.2166679 87.4393643,30.4306007 86.3515373,30.4042106 C85.6437354,30.3871219 84.9715475,30.2279162 84.325377,29.9484408 C83.8751902,29.7535436 83.5177705,29.4390256 83.3552682,28.9635715 C83.251625,28.6605181 83.1761318,28.3332378 83.1652557,28.013961 C83.1049038,26.2244103 83.6971201,24.679725 84.9355069,23.4024016 C85.1572948,23.1737596 85.4213077,22.9762666 85.6934244,22.8112204 C86.257704,22.4683656 86.8556783,22.399362 87.4751916,22.6758089 C88.0320071,22.924568 88.5399867,23.2438447 88.9711935,23.6838237 C89.5580784,24.2825758 90.065205,24.9447074 90.5047288,25.6611334 C90.6032539,25.8218533 90.7045512,25.9812754 90.8047823,26.1415627 C91.0643168,26.1822294 91.2564618,26.0429244 91.4550047,25.9503428 C92.5520017,25.4385481 93.5988832,24.8378492 94.5820007,24.1244516 C94.8270336,23.946643 95.075692,23.772728 95.3326674,23.6141712 C95.9626303,23.2254582 96.1592538,23.4073767 96.1831386,24.0498239 C96.2014788,24.5451788 96.243917,25.0405337 96.3000038,25.5330766 C96.439261,26.7543751 97.2590232,27.625248 98.4513463,27.8703297 C98.9780926,27.9787021 99.4922566,27.9895177 100.01687,27.8588652 C100.393696,27.7649857 100.718061,27.5949643 101.0034,27.3323613 C101.530146,26.8476057 101.91209,26.2665912 102.158829,25.5912645 C102.282945,25.2510055 102.395759,24.9051223 102.546319,24.5769767 C102.655933,24.3375191 102.807133,24.1140686 102.963877,23.9016501 C103.024229,23.8201004 103.145359,23.7718628 103.248363,23.7385507 C103.383781,23.6946393 103.526237,23.8259408 103.494035,23.9637317 C103.433044,24.2233063 103.37717,24.4876398 103.279711,24.7340194 C103.11337,25.1540976 103.211895,25.5207468 103.447758,25.8690094 C103.9487,26.6085807 104.628566,26.9280738 105.524887,26.8733468 C106.255721,26.8287865 106.877154,26.5785133 107.436315,26.1231762 C107.495387,26.0751549 107.564483,26.0401123 107.609693,26.0113428 C107.561497,25.6135447 107.395796,25.3388282 107.198533,25.0866082 C107.086573,24.9431932 107.031339,24.7993456 107.031339,24.6178597 C107.031765,23.7357386 107.145645,22.8659474 107.304095,22.0013476 C107.316891,21.9303972 107.367433,21.8665851 107.420321,21.7592942 C107.532494,21.8600957 107.642322,21.9301809 107.715043,22.0286029 C108.122578,22.5804153 108.304273,23.2174547 108.36164,23.8947281 C108.466776,25.1396047 108.403225,26.3756125 108.138359,27.59756 C108.08995,27.8210105 108.020854,28.0401348 107.952398,28.2583938 C107.823591,28.6691706 107.606708,29.0187311 107.249928,29.2685716 C107.095103,29.376944 106.951794,29.5028377 106.793557,29.6058023 C105.983178,30.1333878 105.099652,30.2145048 104.190535,29.977643 C103.907968,29.9040968 103.625189,29.7414301 103.401268,29.5491285 C103.088419,29.2804688 102.820355,28.9544864 102.554849,28.6343443 C102.462935,28.5238088 102.426255,28.3609257 102.381684,28.2164292 C102.32645,28.0366738 102.28913,27.8510779 102.245625,27.6747835 C102.102103,27.6399572 102.075019,27.7442197 102.03514,27.8251205 C101.858989,28.1839824 101.682625,28.5428443 101.511379,28.9040856 C101.306439,29.33671 101.052023,29.7325613 100.745571,30.1013735 C100.553853,30.3321786 100.406065,30.6055972 100.266595,30.8749059 C99.8200335,31.7364773 99.3717661,32.5978324 98.9518619,33.4728152 C98.4718191,34.4728264 98.15961,35.5347029 97.9309978,36.6195085 C97.816052,37.1646152 97.8209569,37.7220517 97.8900524,38.2740804 C97.9516838,38.7674885 98.2071664,39.1704781 98.5357963,39.5222017 C99.1192691,40.1469113 99.8358146,40.555525 100.644914,40.7990925 C101.301534,40.9968019 101.954955,40.8953515 102.595155,40.7253301 C102.938286,40.6342627 103.279498,40.5027448 103.591707,40.3329398 C104.290339,39.952663 104.930752,39.4862939 105.49887,38.9173929 C106.667095,37.7475766 107.726772,36.4821503 108.747209,35.1808162 C109.485507,34.238993 110.232335,33.304308 111.049325,32.4304068 C111.217159,32.251084 111.412503,32.0981513 111.590573,31.9281299 C112.249539,31.2990941 112.940707,30.7079129 113.677725,30.1768665 C114.044528,29.912533 114.442893,29.6890825 114.841898,29.4755824 C115.774047,28.9769828 116.711527,28.4881173 117.694645,28.0965922 C117.746253,28.0760426 117.794663,28.0468404 117.85864,28.0146099 C117.863971,27.8052197 117.718743,27.6672126 117.61382,27.5220671 C117.170458,26.9099036 117.000705,26.2378217 117.05999,25.4770517 C117.105841,24.8843563 117.170244,24.3016113 117.333813,23.7298982 C117.450038,23.3227987 117.624483,22.9444687 117.830703,22.5789011 C118.250394,21.8350035 119.142237,21.3811805 120.057326,21.6608722 Z" id="Combined-Shape" fill="#FFFFFF" fill-rule="nonzero"></path>
                <path d="M119.583062,44.5602855 C119.880983,44.2678314 120.193618,44.0277249 120.523315,43.8107638 C121.281232,43.3119479 122.052158,42.8328164 122.800266,42.3192913 C124.032255,41.473727 125.248463,40.6048009 126.474907,39.7505841 C128.126801,38.6004523 129.627708,37.273377 131.006205,35.8005074 C131.222661,35.5692696 131.332276,35.3174823 131.36597,34.9910672 C131.493498,33.7533289 131.503095,32.5132111 131.459377,31.2733097 C131.443596,30.8199194 131.332915,30.3682595 131.248465,29.9191954 C131.056534,28.8977693 130.674376,27.9477262 130.21182,27.0223427 C129.359643,25.3182353 128.227245,23.8254649 126.922748,22.461184 C126.280843,21.789751 125.613773,21.1425449 124.953954,20.4888495 C123.457739,19.0062458 121.850417,17.6497521 120.2834,16.2471839 C118.674158,14.8067611 117.089868,13.3341078 115.684713,11.6810501 C114.73657,10.5655281 113.876076,9.38057 113.121144,8.12184941 C112.687804,7.39915041 112.432109,6.59360384 112.237404,5.77810691 C111.961662,4.62299986 111.826244,3.44799208 111.936924,2.25546302 C111.950999,2.10339555 111.96806,1.95176071 111.985547,1.80012587 C111.999835,1.6781258 112.039715,1.57386333 112.185583,1.57494489 C112.330385,1.57602645 112.366639,1.68980666 112.395428,1.80272162 C112.493953,2.19056936 112.607406,2.57560505 112.684392,2.96799535 C112.895304,4.04155271 113.409042,4.92518797 114.247357,5.61479121 C114.466799,5.79519557 114.685602,5.97646518 114.902058,6.16033054 C115.089725,6.31975262 115.27995,6.47657895 115.458234,6.64595139 C115.960882,7.12400131 116.256457,7.71453357 116.283327,8.41235667 C116.296763,8.7627824 116.407017,9.03987831 116.643946,9.27782171 C117.299073,9.936276 117.952068,10.5968934 118.611247,11.2512378 C120.13348,12.7623947 121.797955,14.1113174 123.382459,15.550875 C124.952675,16.9772375 126.512654,18.418093 127.930817,20.0066897 C129.35815,21.6058856 130.532346,23.3725072 131.359359,25.3630119 C132.103202,27.1529952 132.374465,29.0275566 132.279566,30.9650648 C132.234782,31.8811469 132.187438,32.7950659 132.036879,33.700765 C132.018752,33.8100027 132.03432,33.9248644 132.03432,34.1292794 C132.123674,33.9847829 132.186159,33.9175098 132.210897,33.8383396 C132.545498,32.7645659 132.883938,31.6916575 133.103167,30.5852206 C133.263536,29.7755641 133.322822,28.9574715 133.259058,28.1359178 C133.191455,27.2605024 133.086746,26.3883317 133.003789,25.5139978 C132.832329,23.7064932 132.483014,21.9260277 132.206205,20.1345302 C132.063323,19.2102282 131.933022,18.2839794 131.793338,17.3590285 C131.676473,16.5850636 131.558329,15.8115312 131.433786,15.0388641 C131.264033,13.9841259 131.084684,12.9306855 130.914717,11.8759473 C130.735368,10.764319 130.562202,9.65160916 130.386478,8.53954823 C130.207768,7.40866814 130.033324,6.27713912 129.84715,5.1475569 C129.793835,4.82308862 129.77976,4.50792177 129.852268,4.18366981 C130.031191,3.38331474 130.195186,2.57928235 130.369204,1.77741309 C130.401406,1.62902294 130.447896,1.48344484 130.496946,1.33959724 C130.529147,1.24463619 130.667125,1.22257235 130.72769,1.30217523 C130.78399,1.376154 130.841783,1.45489163 130.873772,1.54120019 C131.099398,2.14882111 131.303273,2.76379665 131.430161,3.4021339 C131.701851,4.76728008 131.995933,6.12853265 132.237554,7.49930295 C132.41669,8.51337446 132.523532,9.5404247 132.67004,10.5607693 C132.808445,11.5237911 132.953886,12.4859477 133.101461,13.447888 C133.304268,14.7680412 133.509209,16.0879782 133.718841,17.4070499 C133.838692,18.1604652 133.979655,18.9106358 134.094601,19.6649164 C134.428776,21.8533468 134.756126,24.043075 135.082837,26.2328032 C135.170272,26.817495 135.2415,27.4047826 135.328083,27.9896908 C135.493571,29.1069432 135.742016,30.2036459 136.158295,31.2549232 C136.690799,32.5999523 137.605887,33.5605947 138.952822,34.0771482 C139.451418,34.2683682 139.978165,34.3600845 140.502352,34.3507831 C140.909247,34.3434285 141.320834,34.2335419 141.71856,34.1249532 C142.964837,33.7853431 143.973759,33.094442 144.694996,31.9929803 C144.944934,31.6111893 145.204468,31.2356714 145.464216,30.860586 C145.670223,30.5633731 145.912697,30.3072595 146.288457,30.1480537 C146.332175,30.2520999 146.396578,30.3338659 146.394446,30.4141177 C146.389114,30.622859 146.363097,30.8322492 146.329615,31.0388273 C146.295921,31.2456217 146.241967,31.4491715 146.198889,31.6544518 C146.106548,32.095296 146.212537,32.4731934 146.500861,32.8238354 C147.183712,33.6551231 148.634077,34.1262511 149.795904,33.530311 C150.290022,33.2767931 150.7272,32.9637894 151.060095,32.5021792 C151.743799,31.5540829 152.278009,30.5324405 152.61453,29.4056703 C152.651423,29.2819397 152.716893,29.1616702 152.792173,29.0567588 C152.860842,28.9611488 152.968964,28.9172374 153.09244,28.9652587 C153.208665,29.0102516 153.290343,29.0907198 153.278187,29.221156 C153.260914,29.4095639 153.238308,29.599486 153.194377,29.7829188 C153.123576,30.0794828 153.033154,30.3712879 152.95169,30.6652561 C152.86852,30.9650648 152.935696,31.2200969 153.137011,31.4610687 C153.766121,32.2138351 154.554961,32.4214948 155.476873,32.194367 C155.846662,32.1032995 156.17977,31.9347923 156.476198,31.6780298 C156.483449,31.3916325 156.315615,31.1965189 156.150127,31.028228 C155.914478,30.7885541 155.844103,30.5276816 155.87929,30.1991034 C155.963314,29.4190817 156.10641,28.6513897 156.291944,27.8906198 C156.313483,27.8023644 156.354428,27.7190842 156.401985,27.5918927 C156.520982,27.6572189 156.632516,27.6883679 156.700332,27.7612651 C156.947071,28.0268965 157.152225,28.3243257 157.279326,28.6697763 C157.552296,29.4121597 157.703709,30.1731459 157.610515,30.9693911 C157.526065,31.6894943 157.449719,32.4106791 157.347782,33.1281867 C157.17419,34.3505668 156.39708,35.0364927 155.300936,35.4022766 C154.127379,35.7938017 152.995195,35.268812 152.375255,34.4474747 C152.196332,34.2103965 152.080959,33.9242155 151.926987,33.6434423 C151.827609,33.6161869 151.784745,33.7176374 151.743799,33.7942119 C151.609447,34.0459992 151.485757,34.3034107 151.35759,34.5586591 C150.872642,35.5253583 150.150765,36.240919 149.207527,36.7602845 C148.333384,37.2417954 146.72862,36.9928201 146.174151,36.3979616 C146.071147,36.2876424 145.938074,36.2058764 145.836564,36.0942593 C145.380406,35.5937129 145.117886,35.0243792 145.242641,34.3204994 C145.269085,34.1718929 145.273137,34.0191765 145.286573,33.8774921 C145.153926,33.7946445 145.09656,33.8924176 145.04154,33.9562297 C144.942801,34.0708751 144.856645,34.1967688 144.767077,34.3194178 C144.464465,34.7336557 144.165051,35.1504893 143.859879,35.5629966 C143.286856,36.3369616 142.519129,36.8370753 141.633044,37.1595968 C141.297589,37.2818132 140.956164,37.4051111 140.607061,37.468058 C139.529897,37.66209 138.513725,37.4522672 137.558544,36.9199229 C136.426999,36.2891566 135.630269,35.3613936 135.126555,34.1554532 C134.719446,33.1809668 134.46503,32.1671116 134.288452,31.1298947 C134.250066,30.9047137 134.20059,30.6868874 134.093961,30.3816709 C134.044272,30.6204795 133.995436,30.7649761 133.986479,30.9122847 C133.906508,32.2371968 133.561244,33.5063004 133.220245,34.778216 C132.896733,35.984589 132.391739,37.1150365 131.804641,38.2033031 C130.941374,39.8035806 129.694457,41.0183898 128.078178,41.8390782 C127.503875,42.1308834 126.920829,42.3848339 126.295984,42.5459865 C125.93238,42.6398659 125.579652,42.7789547 125.223725,42.9024689 C124.084716,43.2983202 122.94784,43.7006609 121.807125,44.0919696 C121.201474,44.2998456 120.590278,44.4912819 119.980361,44.6863955 C119.856672,44.7259806 119.725092,44.7666473 119.583062,44.5602855" id="Fill-6" fill="#FFFFFF" fill-rule="nonzero"></path>
                <path d="M64.1436812,20.9354044 C64.1123323,20.8793795 64.0944187,20.8214079 64.0566721,20.7844185 C63.7035175,20.4376701 63.3040861,20.1517054 62.8575247,19.9488045 C62.4401796,19.7593151 61.9946845,19.684471 61.5432182,19.8222619 C61.094311,19.9591875 60.7624821,20.2377976 60.5679912,20.7076277 C60.9878954,21.0145746 61.4255,21.2243975 61.9287879,21.1977911 C62.6199557,21.1612343 63.3094175,21.0868229 63.9990926,21.0230108 C64.0470755,21.0184683 64.0907933,20.9687165 64.1436812,20.9354044 M69.9675327,0.455183247 C70.0127433,0.461023676 70.06883,0.507963419 70.0893027,0.551874793 C70.1285421,0.635587607 70.1630899,0.728818158 70.1690611,0.820101899 C70.1839891,1.04831125 70.2038221,1.27976529 70.1829228,1.50602783 C70.0730952,2.69250015 70.2829406,3.82489443 70.7056172,4.92722131 C71.0336073,5.78251968 71.397638,6.61964783 71.8478248,7.41697453 C72.0448748,7.76588608 72.2060976,8.1266948 72.2579192,8.53639007 C72.3664673,9.39320263 72.2073771,10.1336392 71.4093672,10.6447849 C71.4509524,11.3821932 71.5776274,12.0579524 71.7092074,12.730467 C71.9546669,13.984645 72.2436309,15.2301706 72.4801336,16.4860791 C72.7522502,17.929314 72.9936578,19.3786056 73.236345,20.8272483 C73.4159079,21.8999404 73.5845946,22.9745793 73.7428317,24.0507324 C73.9620605,25.5428539 74.1347992,27.0405994 74.2380159,28.5461322 C74.3103102,29.6008704 74.2230878,30.6430625 74.0273174,31.6794142 C73.8893397,32.4107657 73.7620249,33.1431987 73.5099545,33.8475112 C73.3681382,34.244444 73.2079817,34.626235 72.9738249,34.9779587 C72.6791029,35.4203171 72.4029343,35.8752216 72.1156763,36.3227715 C71.7727581,36.85663 71.3116952,37.2825486 70.8489263,37.7008964 C69.7233527,38.7186452 68.5380671,39.6641458 67.2960549,40.5293945 C65.8966586,41.5040972 64.4168642,42.337548 62.8353459,42.9771832 C61.8547875,43.3736834 60.8578083,43.7165382 59.8230825,43.9315525 C58.8636366,44.1309923 57.8982195,44.294957 56.9112634,44.2389321 C56.1126137,44.1937229 55.356189,43.997744 54.6315398,43.6466694 C53.9094496,43.2968926 53.2713829,42.8493427 52.7156336,42.2583778 C52.0332093,41.5328667 51.6022157,40.681462 51.3328714,39.7316352 C51.2763581,39.532628 51.2234702,39.3323229 51.1656774,39.1209859 C51.0667259,39.1101703 50.9920858,39.0850781 50.9236301,39.0967589 C50.16358,39.2274115 49.4009709,39.3465995 48.6453993,39.501479 C46.8932749,39.8609899 45.1516002,40.2659263 43.4504444,40.8322316 C42.8070463,41.0463806 42.1623686,41.2566361 41.5170511,41.465161 C41.4479557,41.4874412 41.3692636,41.4999873 41.2986754,41.4904695 C41.2545311,41.4846291 41.1954587,41.4353099 41.1826632,41.3933454 C41.1696545,41.3500829 41.1897007,41.277402 41.2219026,41.243441 C41.2722314,41.1904445 41.3413269,41.151941 41.4082898,41.1199268 C41.9531629,40.8605685 42.4931311,40.5897456 43.0461081,40.3492065 C44.9999741,39.4995322 46.9847624,38.7216736 48.8874466,37.7528113 C49.3583194,37.5131374 49.8409213,37.2972579 50.3171255,37.0686159 C50.4531838,37.0032896 50.5873229,36.9334208 50.7203956,36.8620378 C50.8453645,36.794981 50.9187252,36.6892043 50.9304543,36.5440589 C50.9349327,36.4871688 50.9379183,36.4296297 50.9381316,36.3725233 C50.9396244,34.9900721 51.146271,33.6327132 51.4371544,32.2872514 C51.5781176,31.6350702 51.7182279,30.9807258 51.9026957,30.3404418 C52.1029445,29.6454307 52.3539487,28.9655615 52.5863995,28.2805009 C52.5957828,28.2532455 52.6435525,28.2396179 52.6746881,28.2188519 C52.8339916,28.2491356 52.8071211,28.3815186 52.8071211,28.4875116 C52.8058416,29.0631183 52.7090226,29.6261789 52.5908779,30.1877254 C52.3238794,31.4566126 51.9984483,32.713819 51.8146203,33.999795 C51.7169483,34.6824762 51.7248388,35.3699163 51.7755941,36.0567075 C51.7781532,36.088938 51.807796,36.1192217 51.8436233,36.1854133 C51.9557968,36.1410693 52.0782067,36.1051614 52.1895271,36.0469735 C53.3106223,35.461849 54.4453659,34.9009515 55.545775,34.2777561 C56.89271,33.5148231 58.2413509,32.75189 59.5262279,31.8799356 C61.6285212,30.4537894 63.6109637,28.8768735 65.4306907,27.0933796 C65.8911139,26.6421524 66.3195484,26.1612904 66.653723,25.5863326 C66.6044605,25.4366446 66.5696995,25.2878218 66.5084946,25.1515451 C66.1787984,24.4173816 66.0126707,24.2856475 65.2221248,24.2683425 C64.6970846,24.256878 64.1703384,24.3090092 63.6446584,24.3356156 C63.005952,24.3678461 62.3651129,24.4535057 61.7291788,24.4251688 C60.8104651,24.3840695 60.0723806,23.9317607 59.5641878,23.1562816 C59.3229934,22.7883345 59.2558173,22.334079 59.2342783,21.8953979 C59.2157249,21.5164189 59.2214828,21.1268407 59.2869529,20.7547837 C59.4532938,19.8094995 59.759745,18.9070451 60.2419204,18.075541 C60.5219276,17.5927322 60.8993935,17.1875795 61.3374246,16.8522956 C61.6596568,16.6056997 62.0473591,16.4808876 62.4519088,16.5174444 C63.0409262,16.5704409 63.5928369,16.7434906 64.0641361,17.1360972 C64.6785312,17.6478918 65.2521941,18.1986227 65.6944904,18.8724351 C66.3643325,19.8936449 66.9454594,20.9613618 67.2566022,22.1588661 C67.2992537,22.3226144 67.3192999,22.4928521 67.3470234,22.660494 C67.368989,22.7922282 67.3630177,22.9345616 67.4110007,23.0548312 C67.6357742,23.6181081 67.6161545,24.2168602 67.6583795,24.8032825 C67.6829041,25.1413785 67.6581662,25.493751 67.5912034,25.8264391 C67.3167408,27.1898548 66.8543984,28.4728024 65.9000707,29.5162924 C65.6317926,29.809828 65.3475203,30.0908175 65.0510922,30.355151 C64.5426861,30.8087576 64.0131676,31.2383536 63.5026289,31.6897972 C62.1371406,32.8970355 60.6690753,33.9625893 59.1664624,34.9855296 C58.2586248,35.6035335 57.330741,36.1830338 56.3755603,36.7205696 C56.0134489,36.9241194 55.6681849,37.1581691 55.3062868,37.3621515 C54.4841788,37.8254922 53.6661227,38.3002975 52.740798,38.5326167 C52.768948,38.7876488 52.9220669,38.9321454 53.0728401,39.0727483 C53.6720939,39.6312663 54.3319128,40.1021779 55.0533633,40.4865647 C55.6187091,40.7874549 56.2354501,40.8603521 56.8528308,40.9252458 C58.0703184,41.0530863 59.2549643,40.8456429 60.4272412,40.5358839 C62.164011,40.0768694 63.82806,39.4171173 65.4364487,38.6176274 C66.0090453,38.3329606 66.5404832,37.963932 67.0926071,37.6364354 C68.3657549,36.8808569 69.5154266,35.9533103 70.6224467,34.9742813 C71.2735221,34.3984583 71.9531741,33.8449154 72.4886639,33.1466597 C73.2154457,32.1987797 73.1567999,32.3575529 73.0450529,31.228187 C72.8552537,29.3075511 72.5413385,27.406167 72.2510949,25.500673 C71.9467763,23.5010832 71.6622907,21.4978161 71.3249172,19.5038504 C71.0768986,18.0370375 70.7489085,16.5842848 70.4725266,15.1222308 C70.2136319,13.7536236 69.9779823,12.3804739 69.7276179,11.0101362 C69.6384762,10.5225685 69.5478417,10.0345683 69.4365213,9.55175946 C69.13988,8.2651346 68.9773777,6.95904164 68.8748008,5.64494513 C68.8379072,5.17338457 68.8965531,4.70312189 68.9496542,4.23199395 C69.0675856,3.18504299 69.281483,2.16015587 69.5721531,1.15105954 C69.6348508,0.933449483 69.7363614,0.726438724 69.8314743,0.51986059 C69.8485349,0.482871206 69.9240281,0.44955913 69.9675327,0.455183247 Z" id="Combined-Shape" fill="#FFFFFF" fill-rule="nonzero"></path>
                <path d="M159.94801,1.28275039 C160.097717,1.29291707 160.1457,1.37836038 160.154017,1.47245618 C160.165746,1.60440661 160.156576,1.73895279 160.149112,1.87198478 C160.102196,2.69808101 160.197948,3.51206375 160.348082,4.32128762 C160.487339,5.0718909 160.890182,5.69789835 161.279164,6.32996255 C161.508416,6.70223582 161.751956,7.06628922 161.967986,7.44634972 C162.505822,8.39206659 162.534825,9.36374091 162.07824,10.351206 C162.054356,10.403121 162.03111,10.4565501 161.998695,10.5030572 C161.844297,10.7236956 161.843657,10.9642348 161.895479,11.2160221 C162.129209,12.3559873 162.356328,13.4970341 162.594324,14.6359177 C162.824642,15.7373794 163.081831,16.8332169 163.296581,17.9377069 C163.551424,19.2479098 163.78622,20.5622226 164.005876,21.8789149 C164.156436,22.7818019 164.291854,23.6887989 164.388673,24.5990406 C164.515775,25.7963285 164.581671,26.9977264 164.383342,28.1978263 C164.330454,28.5171031 164.309341,28.8422203 164.279272,29.1651744 C164.208044,29.9311359 163.995,30.66292 163.773425,31.3940552 C163.679805,31.7033816 163.609003,32.0207115 163.541401,32.3373926 C163.357999,33.1976661 163.134505,34.0460425 162.77346,34.848777 C162.253112,36.0053983 161.557465,37.0406684 160.680977,37.9548036 C160.073832,38.5877331 159.411668,39.1523079 158.704932,39.6615068 C158.105252,40.0934822 157.458868,40.4419611 156.760449,40.6926669 C155.99784,40.9660855 155.249093,41.2790893 154.48627,41.5520752 C153.83029,41.786774 153.160448,41.9805897 152.502122,42.2085827 C151.736314,42.4735651 150.97733,42.7584483 150.213655,43.0299201 C150.037291,43.0926506 149.856448,43.1471613 149.673473,43.1852322 C149.538268,43.2133528 149.423322,43.0496045 149.470452,42.9213314 C149.547011,42.7123738 149.698637,42.5763134 149.883745,42.4698878 C150.22773,42.2719622 150.568942,42.0692777 150.914632,41.8745967 C152.894089,40.7601563 154.73173,39.4248612 156.595601,38.1298002 C158.073476,37.10275 159.460504,35.9575933 160.837295,34.7988089 C160.938805,34.7133656 161.031999,34.6175393 161.135642,34.5353407 C161.439321,34.2941526 161.543604,33.9921808 161.550215,33.5924359 C161.57346,32.1868393 161.417355,30.8141222 160.995532,29.4712562 C160.681616,28.4721102 160.14506,27.6029678 159.509766,26.7933113 C159.193932,26.3907544 158.836725,26.0208605 158.487836,25.6459915 C157.608361,24.7013562 156.722489,23.7625614 155.738519,22.92738 C154.481792,21.8605283 153.210137,20.8137937 151.897963,19.8161619 C150.707772,18.9111117 149.534216,17.9809693 148.391582,17.0155681 C147.248948,16.0499505 146.146193,15.0350137 145.040452,14.0254848 C144.354829,13.3996936 143.68648,12.7535691 143.028367,12.0981432 C142.531263,11.6032209 142.053993,11.0873164 141.583333,10.5662203 C140.84205,9.74596454 140.217632,8.83139663 139.680649,7.86815848 C139.180133,6.97067923 138.816956,6.00722477 138.636113,4.97736247 C138.497283,4.18630882 138.369541,3.39676935 138.351628,2.59252066 C138.346936,2.38269784 138.348429,2.17136084 138.369755,1.96305221 C138.380844,1.85511243 138.426481,1.74263009 138.48534,1.65113004 C138.517329,1.60116193 138.617133,1.55876474 138.672367,1.5721761 C138.726535,1.58537114 138.800748,1.67319388 138.801175,1.72878612 C138.80544,2.13848139 138.926783,2.52416601 139.055804,2.90011658 C139.413651,3.94295762 139.921417,4.89343335 140.826909,5.5637848 C141.008604,5.69811466 141.202242,5.82054736 141.40377,5.92134884 C141.872511,6.15583124 142.22929,6.51577471 142.548537,6.92287424 C142.789518,7.23025385 142.945623,7.57938172 142.952234,7.97242095 C142.958418,8.34209847 143.121347,8.61638232 143.343135,8.89196404 C144.204056,9.96097885 145.169686,10.9222702 146.186925,11.8357565 C147.217385,12.7611401 148.317581,13.5965377 149.402849,14.4514035 C150.503685,15.3181664 151.615823,16.1702201 152.710261,17.0452028 C153.449199,17.6361677 154.16681,18.2552532 154.892739,18.8628741 C155.546374,19.4099276 156.216642,19.9385946 156.847885,20.5111729 C158.339195,21.8635567 159.733687,23.30571 160.843906,25.010899 C161.453609,25.947747 161.851121,26.9719852 162.155866,28.0394858 C162.223256,28.2761314 162.258656,28.5270535 162.272092,28.7736494 C162.3237,29.7076854 162.395354,30.6430193 162.311971,31.5781368 C162.274864,31.9956193 162.193826,32.4089919 162.133261,32.8245276 C162.114494,32.953666 162.097007,33.083237 162.067151,33.2984676 C162.181244,33.2074002 162.241596,33.1766838 162.277636,33.1277973 C162.822509,32.3871444 163.072021,31.5508815 163.155831,30.6309058 C163.294448,29.1134758 163.149007,27.6155139 162.945559,26.1203641 C162.626312,23.772728 162.113854,21.4622976 161.606515,19.1507856 C161.295585,17.7345898 161.046713,16.3043336 160.738343,14.8874888 C160.226951,12.5376896 159.886592,10.1560924 159.434913,7.79526127 C159.224001,6.69250177 159.060859,5.57524935 159.138698,4.43658202 C159.186041,3.74438303 159.328071,3.07662732 159.511259,2.41471205 C159.602107,2.08591753 159.72281,1.76534287 159.83733,1.44368666 C159.860148,1.37965825 159.916235,1.32774333 159.94801,1.28275039" id="Fill-10" fill="#FFFFFF" fill-rule="nonzero"></path>
                <path d="M170.708839,29.8036847 C170.774096,30.6797491 170.495368,31.7316752 170.167804,32.77019 C169.921279,33.5512933 169.645323,34.3239604 169.35508,35.0897055 C169.139263,35.6588229 168.903187,36.2229651 168.630004,36.765476 C168.460891,37.1009762 168.216284,37.4005686 167.983194,37.6979978 C167.894692,37.8106965 167.750103,37.8870547 167.618523,37.9547604 C166.761228,38.3958209 165.876635,38.7704736 164.955789,39.0547078 C164.812693,39.0990518 164.674502,39.1607008 164.535245,39.2178072 C164.465936,39.2461441 164.401746,39.302169 164.331584,39.3093073 C164.265901,39.3162293 164.172281,39.295247 164.133468,39.2493888 C164.097001,39.2063427 164.085911,39.0927788 164.116834,39.0486511 C164.224955,38.8944205 164.342247,38.7412715 164.481078,38.6160267 C164.846814,38.286367 165.221935,37.9668739 165.600467,37.6525723 C165.92078,37.3865083 166.262418,37.1461854 166.575054,36.8716853 C167.329133,36.2102026 168.084491,35.5502342 168.702725,34.7459855 C169.087015,34.246088 169.309016,33.6953572 169.322025,33.0624278 C169.328423,32.7574276 169.338446,32.450048 169.312428,32.1469946 C169.149499,30.2451779 168.97079,28.3459569 168.686944,26.4569026 C168.454493,24.9098379 168.281115,23.3534718 168.074681,21.8020808 C167.956323,20.9128214 167.818985,20.0261578 167.700201,19.1368984 C167.434908,17.1515852 167.11289,15.1742755 166.94335,13.1753346 C166.853142,12.111295 166.665475,11.0561242 166.552449,9.99359872 C166.381203,8.38055878 166.19311,6.76730252 166.285237,5.1386881 C166.33386,4.27819824 166.475463,3.43328285 166.692346,2.60112989 C166.793856,2.21155164 166.937805,1.83841313 167.18625,1.5182711 C167.224423,1.46895192 167.323801,1.41746962 167.366666,1.43563985 C167.419341,1.45792 167.471376,1.55158318 167.472868,1.61561158 C167.481612,1.9781508 167.501232,2.34350208 167.467963,2.70322924 C167.413156,3.2974388 167.438107,3.8868895 167.521704,4.47309551 C167.556252,4.7142836 167.630892,4.95958161 167.737094,5.17805692 C167.969545,5.65697209 168.232705,6.1205291 168.485842,6.58884497 C168.711895,7.00676011 168.942213,7.4220795 169.168479,7.83977832 C169.594995,8.62693835 169.598193,9.44762677 169.334607,10.2802124 C169.196203,10.7178119 169.024957,11.1534647 168.700166,11.4813939 C168.467928,11.7158763 168.433594,11.9689616 168.470274,12.2635788 C168.534038,12.7747245 168.591191,13.2869517 168.664338,13.7970158 C168.791653,14.6841121 168.93283,15.5692616 169.061211,16.4563578 C169.236082,17.6640287 169.403489,18.8729975 169.576015,20.0808847 C169.851117,22.0077937 170.145626,23.9321068 170.39727,25.8622604 C170.557639,27.0915626 170.679836,28.3271378 170.708839,29.8036847" id="Fill-12" fill="#FFFFFF" fill-rule="nonzero"></path>
                <path d="M77.7628652,8.42866661 C77.8577648,8.95690096 77.939869,9.42564946 78.0266649,9.8933164 C78.4962581,12.4265484 78.9767274,14.9576172 79.4337384,17.4932286 C79.7082009,19.0145522 79.9730669,20.5384715 80.194215,22.0684476 C80.4371154,23.7491933 80.7175491,25.4262616 80.8269502,27.1251775 C80.8602184,27.6395679 80.9192908,28.1522277 80.9653544,28.6657529 C81.0696374,29.8286471 81.0894703,30.992623 80.9517059,32.1533542 C80.8414518,33.0815497 80.7237336,34.0099616 80.5691218,34.9314515 C80.474862,35.4942958 80.3123597,36.0463245 80.1652119,36.5990021 C80.0837475,36.9055165 79.9107956,37.0735911 79.7777229,37.0039386 C79.5783271,36.8994598 79.5798199,36.692449 79.5913358,36.5042574 C79.6248172,35.9520124 79.6683218,35.4004163 79.7131059,34.8490366 C79.8073657,33.6846281 79.7890256,32.5210849 79.6715206,31.3599211 C79.5736354,30.3912751 79.4887589,29.4202497 79.3501414,28.4574442 C79.0944456,26.6815212 78.8123058,24.9094918 78.5246213,23.1387603 C78.2953694,21.7260254 78.0503364,20.3158863 77.7959201,18.9074777 C77.511008,17.3299129 77.2075425,15.7558092 76.9126072,14.1799749 C76.6528595,12.792116 76.3869273,11.4053386 76.1389087,10.0153165 C76.0587238,9.56538713 76.0260954,9.10658899 75.9734208,8.65168447 C75.929703,8.2722729 75.914775,7.88723721 75.8407746,7.5140987 C75.6951196,6.77842097 75.6872291,6.031495 75.663984,5.28997684 C75.6443643,4.66396938 75.7290276,4.03320306 75.7849011,3.40611404 C75.8271261,2.93109249 75.8638064,2.45131207 75.9625447,1.9866735 C76.085381,1.41041785 76.26665,0.846708297 76.4306451,0.279970379 C76.4560227,0.192580257 76.5182939,0.113842623 76.5728879,0.0383496716 C76.6244962,-0.0328170365 76.7829466,0.00136028834 76.8070447,0.0891830345 C76.8322091,0.179817839 76.8514023,0.273697326 76.8595061,0.367576813 C76.88595,0.671711742 76.8974659,0.977577168 76.9307341,1.28106316 C76.9868209,1.79264147 77.0503716,2.30357085 77.1196803,2.81341866 C77.2214042,3.56142619 77.4954402,4.24627056 77.8511539,4.90623903 C78.0942675,5.35746624 78.3105107,5.82470055 78.515238,6.29539586 C78.6461781,6.5960698 78.6732619,6.92443169 78.6263452,7.25192833 C78.5512785,7.77605275 78.3075251,8.18682959 77.7628652,8.42866661" id="Fill-14" fill="#FFFFFF" fill-rule="nonzero"></path>
                <path d="M29.5286479,37.1496681 C29.5009244,37.0536255 29.4480365,36.9668843 29.4576331,36.8881466 C29.4998581,36.5478876 29.5655415,36.2108732 29.6130979,35.8710468 C29.7265509,35.0590108 29.8534392,34.2482728 29.9408748,33.4329922 C30.0895154,32.0442679 30.0602991,30.6484054 30.0443047,29.254706 C30.0372672,28.644922 29.9929097,28.0331911 29.9265866,27.4266518 C29.8003381,26.2693816 29.6674786,25.1118951 29.4985786,23.9604654 C29.2908657,22.5447021 29.0599077,21.1319673 28.8069842,19.723775 C28.6385107,18.785629 28.4062732,17.8593803 28.2162607,16.9249116 C27.9729338,15.7291379 27.7155319,14.5353109 27.5146432,13.3319663 C27.2570281,11.7894441 27.0448368,10.2389184 26.8247549,8.69012314 C26.7821034,8.38944921 26.7880746,8.08077172 26.7801841,7.77555523 C26.7275095,5.73962497 26.9228534,3.73268054 27.4864932,1.77224323 C27.5703035,1.4804381 27.6976183,1.20139538 27.810005,0.91867536 C27.8454058,0.829554741 27.9083167,0.728536952 28.0134527,0.775260383 C28.0866001,0.807923523 28.1646524,0.90180301 28.1795804,0.98010802 C28.2111425,1.14645209 28.2188198,1.32166496 28.2070906,1.49125371 C28.1889637,1.757534 28.1631596,2.02532849 28.1115512,2.28684992 C27.8712099,3.50382225 28.1514304,4.6375144 28.6400035,5.73638029 C28.8411054,6.18847275 29.075049,6.62542336 29.2806293,7.07556901 C29.7990585,8.21034272 29.7610987,9.33516607 29.1714414,10.4297057 C29.0430604,10.6682981 29.0230142,10.8945606 29.0703573,11.1441849 C29.3017418,12.3624551 29.5348324,13.580509 29.7645108,14.7989955 C29.9413013,15.7362762 30.1229968,16.6726916 30.2854991,17.6123517 C30.4674078,18.6651431 30.6397199,19.7198813 30.7979571,20.7765664 C30.907998,21.5115951 31.0028976,22.2500849 31.0775378,22.9898726 C31.2637116,24.8313382 31.4170438,26.6764811 31.4599086,28.5272482 C31.485073,29.6140006 31.4289863,30.7020508 31.2639249,31.7795018 C31.1831003,32.3070872 31.0724196,32.8301301 30.9898889,33.3577155 C30.8081934,34.5177977 30.4006582,35.6036849 29.9498316,36.6761607 C29.8436294,36.928597 29.8404305,36.9272991 29.5286479,37.1496681" id="Fill-16" fill="#FFFFFF" fill-rule="nonzero"></path>
                <path d="M63.0450421,1.36657137 C63.0552784,1.44509269 63.0665811,1.4701849 63.0586906,1.48208207 C62.7693,1.92681992 62.4850277,2.37545139 62.1817754,2.81023887 C62.1120401,2.9101751 61.9857916,2.99323898 61.8689265,3.03152623 C61.0817927,3.28915404 60.2929529,3.54267192 59.4992082,3.77910114 C57.6767088,4.3218284 55.8467455,4.83881452 54.0494105,5.46547091 C51.5946024,6.32141822 49.1419269,7.18363858 46.6770957,8.00843693 C44.7469013,8.65456142 42.8327012,9.34416466 40.9494234,10.1166155 C39.2574377,10.8107613 37.6012793,11.5897014 35.9969425,12.477014 C35.6171307,12.6870531 35.2334803,12.8906029 34.8564409,13.1060498 C34.6930856,13.1994967 34.536128,13.3074365 34.3864212,13.4225146 C33.8718306,13.8179332 33.7291613,14.2695931 33.9692893,14.8774303 C34.1083333,15.2298028 34.3073026,15.5581647 34.4834534,15.8949628 C34.5359147,15.9951153 34.6024511,16.0879133 34.6732526,16.2014772 C34.6431833,16.3249914 34.6231371,16.4567255 34.5787795,16.5793745 C34.4680988,16.8850237 34.3791704,17.1939175 34.3512337,17.5207652 C34.3418503,17.6321659 34.2966397,17.7420525 34.2576136,17.8486944 C34.2392734,17.8986626 34.1966219,17.9395456 34.143734,18.0150385 C34.0624829,17.9767512 33.9567071,17.9611768 33.9074446,17.8990952 C33.278548,17.1054458 32.785923,16.264424 33.0684893,15.1802674 C33.1597635,14.8298416 33.2395219,14.4755223 33.3491363,14.1307206 C33.5402151,13.5287238 33.8123317,12.9598228 34.1409617,12.4250991 C34.4770556,11.8782619 34.9692542,11.4880347 35.5294818,11.1964459 C36.7343872,10.5695732 37.9352407,9.93556216 39.1744805,9.3768278 C41.7743038,8.2050647 44.443649,7.23079463 47.1564988,6.36770903 C48.8433663,5.83125481 50.5108274,5.23315163 52.1902309,4.67225414 C54.5840473,3.872548 56.9765842,3.06808299 59.4085737,2.39102586 C60.4601469,2.09835548 61.5004174,1.76436947 62.544953,1.44639056 C62.7040432,1.39793663 62.8554561,1.31184438 63.0450421,1.36657137" id="Fill-18" fill="#FFFFFF" fill-rule="nonzero"></path>
                <path d="M105.956009,5.30719529 C106.081404,4.81616663 106.01892,4.33335784 105.789455,3.90224766 C105.633777,3.60979359 105.391089,3.44885733 105.076108,3.42116937 C104.745345,3.39196722 104.444866,3.46897436 104.261677,3.78673696 C104.519292,4.21957763 105.399833,5.00673767 105.956009,5.30719529 M106.785368,2.306729 C106.976873,2.77526119 107.073052,3.25612317 107.02123,3.75948162 C106.951069,4.44302812 106.878135,5.12830511 106.626064,5.77486223 C106.544386,5.98446873 106.533297,6.17828445 106.652295,6.37621009 C106.700918,6.45689454 106.727575,6.55099034 106.76916,6.63643365 C107.082862,7.28147658 107.10632,7.95745215 106.976446,8.64878588 C106.856596,9.28798838 106.665304,9.90577598 106.433493,10.5123153 C106.236229,11.0282199 106.043231,11.5462876 105.868573,12.070412 C105.766423,12.37671 105.676002,12.6925258 105.631004,13.0111537 C105.588779,13.3098808 105.603921,13.6181257 105.610958,13.921828 C105.619275,14.2802573 105.82123,14.5205801 106.11126,14.6999029 C106.595142,14.9988463 107.09715,14.80741 107.268609,14.2545161 C107.319365,14.0907678 107.357324,13.9224769 107.418529,13.7630548 C107.449665,13.6819378 107.519613,13.6161789 107.562691,13.5562604 C107.738416,13.5787568 107.783413,13.6903739 107.786612,13.8028563 C107.81199,14.7001192 107.663349,15.564719 107.13639,16.3023435 C106.670848,16.9536595 106.149007,17.1645639 105.371683,16.4896699 C104.966707,16.1379463 104.744492,15.6752545 104.661109,15.1574032 C104.547229,14.4524418 104.597771,13.7461825 104.811242,13.0641502 C105.124091,12.0645716 105.376161,11.044227 105.788602,10.0770952 C105.884781,9.85126531 105.941507,9.60510204 105.993755,9.36326502 C106.099744,8.8709385 106.041099,8.56182839 105.751068,8.05565788 C105.6792,8.15602673 105.626739,8.21183528 105.593897,8.27781049 C105.270812,8.92739598 104.852188,9.51576511 104.467684,10.126847 C103.757963,11.2546988 102.856097,12.186788 101.810068,12.983682 C100.575307,13.9239911 99.3017323,14.8069774 97.9597023,15.5844034 C97.8289754,15.6601127 97.7003811,15.7405808 97.565389,15.8076376 C95.9738476,16.600638 94.4932002,17.5807485 93.0174577,18.5699441 C92.7508857,18.748618 92.4749304,18.9132316 92.1998281,19.0782778 C92.1576031,19.1035863 92.0961849,19.0962317 92.0108819,19.1087778 C91.9805993,18.8457422 92.0799773,18.6651215 92.2631656,18.5119725 C93.2366865,17.698855 94.1939998,16.8658368 95.2387487,16.1444356 C96.4679655,15.2956266 97.697822,14.4472503 98.9153095,13.5813526 C99.7781497,12.9674586 100.643762,12.3535646 101.46715,11.6875394 C102.5264,10.8305106 103.556434,9.93303131 104.437188,8.88002361 C104.716556,8.54625391 104.955617,8.17787426 105.207901,7.82117547 C105.272518,7.73010805 105.316663,7.62411508 105.374669,7.51682423 C105.234558,7.24600138 105.004667,7.07792681 104.789703,6.89817139 C104.528463,6.67969609 104.257412,6.47268533 103.994679,6.25572421 C103.670101,5.98792973 103.411846,5.66129833 103.188778,5.30373429 C102.9977,4.99765256 102.937348,4.68032258 103.03502,4.32102805 C103.180888,3.78435752 103.378151,3.27061609 103.631501,2.77850587 C103.773317,2.50292415 103.962264,2.26779281 104.227769,2.10469343 C104.485171,1.94678553 104.734896,1.77178898 105.005093,1.64005486 C105.777086,1.26367166 106.504934,1.62080307 106.785368,2.306729 Z" id="Combined-Shape" fill="#FFFFFF" fill-rule="nonzero"></path>
                <path d="M38.8971817,16.7421495 C38.8839597,16.5835926 38.8573025,16.5055039 38.8750029,16.439745 C39.00509,15.9588831 39.1833734,15.4964076 39.4563431,15.0800067 C39.5356749,14.9590881 39.6521135,14.8388186 39.7792151,14.7789001 C40.3754833,14.4976943 40.9738841,14.2180026 41.5855068,13.9740025 C42.7407232,13.5128249 43.9074554,13.0817147 45.0654441,12.6281081 C46.030648,12.2502107 46.9843359,11.8422459 47.9538049,11.4766783 C49.0469633,11.0646036 50.1473725,10.6702665 51.2535396,10.2949649 C52.89477,9.73796099 54.5409053,9.19545003 56.1902395,8.663971 C57.6064831,8.20733598 59.029551,7.77189956 60.4509128,7.33170427 C61.889975,6.88610117 63.3307433,6.44612219 64.7708718,6.00376378 C65.2208453,5.86554029 65.671032,5.72774943 66.1212188,5.58995857 C66.1572593,5.57892665 66.1960722,5.55772806 66.2301934,5.56335218 C66.2990756,5.57481672 66.3931222,5.58130609 66.4259639,5.62738058 C66.4611514,5.67691607 66.4492903,5.77101187 66.4372666,5.84239489 C66.4283097,5.895824 66.3899234,5.94535949 66.3600673,5.99359711 C66.1504351,6.33320723 65.9378173,6.67065424 65.7301044,7.01112961 C65.6277408,7.17898787 65.5036248,7.28865814 65.3023097,7.34814399 C64.2010475,7.67391014 63.1046902,8.01676495 62.0081197,8.35897082 C59.7070703,9.07712727 57.4019691,9.78317023 55.1079572,10.5238232 C53.225959,11.1312278 51.3512115,11.763292 49.4856342,12.4204484 C48.4558133,12.7832039 47.4517966,13.2210198 46.4358374,13.623793 C44.7888491,14.2768395 43.1380221,14.9199356 41.4961519,15.5853119 C40.7979466,15.8684646 40.1176549,16.1974754 39.4292594,16.5055039 C39.2769934,16.5736423 39.124301,16.6411317 38.8971817,16.7421495" id="Fill-22" fill="#FFFFFF" fill-rule="nonzero"></path>
                <path d="M142.592404,24.6187682 C142.518404,24.4420412 142.451228,24.3598425 142.461891,24.2893248 C142.478098,24.1811687 142.53973,24.0764736 142.59603,23.9784842 C142.964965,23.336037 143.319186,22.6834231 143.717125,22.0597951 C143.918866,21.7435467 144.194608,21.4733728 144.451157,21.1958443 C144.635625,20.9964044 144.887269,20.9051207 145.140406,20.823571 C145.742858,20.629539 146.361092,20.5925496 146.981885,20.6643652 C147.6722,20.7444007 148.359742,20.8501774 149.046005,20.9609292 C149.474013,21.0301491 149.888586,21.1588549 150.278208,21.3567805 C150.395286,21.4162664 150.513644,21.4798622 150.615581,21.5618445 C150.906251,21.7956779 150.977479,22.0260504 150.796637,22.3654442 C150.592123,22.749831 150.33856,23.1076113 150.100564,23.4733952 C149.893704,23.7915904 149.665945,24.0963743 149.470388,24.4214915 C149.024893,25.1614955 148.434383,25.7747405 147.824466,26.3674359 C147.251016,26.9246561 146.562621,27.2532343 145.759706,27.3047166 C145.141259,27.344518 144.522812,27.3817237 143.904365,27.4204436 C143.773211,27.4286635 143.639286,27.4245536 143.511544,27.4507273 C143.303618,27.4933408 143.103369,27.4777663 142.896936,27.4381812 C142.680053,27.396433 142.457839,27.3845358 142.249486,27.3607415 C142.214298,27.2491244 142.238397,27.1922343 142.3237,27.1580569 C142.98821,26.891993 143.654853,26.6315531 144.315525,26.3557551 C145.602962,25.8182193 146.868859,25.2326622 148.087412,24.5473852 C148.279771,24.4392291 148.488337,24.3475128 148.65745,24.1394204 C148.440354,23.9691827 148.209822,23.9019097 147.982276,23.8415586 C146.920893,23.5597038 145.839464,23.424725 144.743107,23.4619307 C144.408932,23.4731789 144.073265,23.5534307 143.746128,23.6341152 C143.448847,23.7072287 143.195923,23.8774664 142.996527,24.1190871 C142.87689,24.2642326 142.760025,24.4113248 142.592404,24.6187682" id="Fill-24" fill="#FFFFFF" fill-rule="nonzero"></path>
                <path d="M10.8767767,23.3315377 C11.0503684,23.0957574 11.2606404,23.051846 11.4436154,22.9683495 C12.3360984,22.5608174 13.2375382,22.1729696 14.1236235,21.7522425 C15.1997213,21.2415294 16.2120551,20.6129262 17.2107404,19.9624755 C17.2691729,19.9244045 17.3141703,19.8647023 17.3732426,19.8073796 C17.200504,19.6003689 16.9791426,19.5501844 16.7669513,19.4995674 C15.9738463,19.3100779 15.1670929,19.2514573 14.355861,19.299046 C14.0010004,19.319812 13.6465663,19.3814609 13.2963973,19.4485177 C12.7261465,19.557539 12.2324552,19.8186279 11.8368624,20.2590395 C11.7784298,20.3241494 11.699951,20.3708729 11.6455703,20.4143516 C11.4896791,20.359192 11.495437,20.2620678 11.5146302,20.1690536 C11.5299847,20.0952911 11.5570684,20.0219613 11.5911897,19.9549045 C11.9189666,19.3100779 12.2365071,18.6598435 12.5817712,18.0249672 C13.0505113,17.1636121 13.7992587,16.6892395 14.7401512,16.5250586 C15.8853444,16.3251861 17.0288316,16.3820762 18.164215,16.6128813 C18.5346435,16.6881579 18.8854522,16.8227041 19.1993674,17.0496156 C19.4644465,17.2412682 19.5638246,17.4865662 19.4561295,17.7945948 C19.3684806,18.0446516 19.2746473,18.2988185 19.1405083,18.5248647 C18.7135666,19.2449679 18.2678582,19.9536067 17.8270548,20.6650574 C17.4423381,21.286306 16.9371309,21.8013453 16.399935,22.2828562 C15.8648717,22.762204 15.2293641,23.0620127 14.5234815,23.1338284 C13.3819136,23.249988 12.2352276,23.3155306 11.0902476,23.3988108 C11.0414116,23.4022718 10.9898033,23.3683108 10.8767767,23.3315377" id="Fill-26" fill="#FFFFFF" fill-rule="nonzero"></path>
                <path d="M79.5471062,13.5051242 C79.5315383,13.4240071 79.5021088,13.3656028 79.5142645,13.3180141 C79.6083111,12.9498508 79.6959599,12.5788754 79.8136781,12.2180667 C79.9471774,11.8098856 80.1966888,11.4994776 80.560293,11.2487718 C81.7590139,10.421594 82.9969741,9.66104037 84.2460238,8.91692647 C85.4626584,8.19206434 86.6671372,7.44665256 87.8867574,6.72719824 C89.4970654,5.77758776 91.1564227,4.92401989 92.852247,4.1411861 C93.8961429,3.65902624 94.9246843,3.14290538 95.9589836,2.64019587 C96.6202954,2.31875596 97.2794746,1.99255719 97.9409996,1.67176622 C98.0399511,1.62374492 98.1467932,1.59302859 98.2922349,1.53851792 C98.2922349,1.66051799 98.317186,1.7548301 98.288183,1.82707837 C98.1111792,2.2679226 97.9192473,2.70271009 97.7377651,3.14204013 C97.6750674,3.29367497 97.5671591,3.37371048 97.4219306,3.44314669 C96.4870094,3.8909129 95.5537942,4.34278905 94.6267634,4.80677869 C92.7044595,5.76915159 90.7488875,6.6642514 88.8660362,7.70579456 C87.9579854,8.20807144 87.0674217,8.7434441 86.1766448,9.27665363 C85.2696603,9.8195972 84.3626757,10.363406 83.4725386,10.9338213 C82.1848893,11.7588359 80.8684502,12.5405882 79.6569338,13.4832766 C79.6445649,13.4927944 79.6230259,13.4906313 79.5471062,13.5051242" id="Fill-28" fill="#FFFFFF" fill-rule="nonzero"></path>
                <path d="M49.7365744,0.572813812 C49.6796346,0.697409629 49.6542569,0.784799751 49.6052077,0.85510121 C49.3556963,1.21244894 49.0886978,1.55789949 48.8507024,1.92281814 C48.728719,2.11014449 48.5858364,2.22976513 48.3732186,2.2896836 C47.4496,2.55012347 46.5313128,2.83003144 45.6057749,3.08225144 C44.4622877,3.39374098 43.311763,3.67429789 42.1925872,4.07772011 C41.041636,4.49239056 39.8633878,4.82983756 38.7137162,5.24796901 C37.4574157,5.70460403 36.2200952,6.21445184 34.9748842,6.7020195 C34.6240754,6.83916143 34.2719871,6.97370761 33.9243773,7.11885308 C33.5447788,7.2771936 33.1380965,7.38967593 32.8617147,7.73620805 C32.8380431,7.76605913 32.7395181,7.77687474 32.7135007,7.75351302 C32.6646647,7.70916903 32.6213734,7.63519026 32.616042,7.5702966 C32.610284,7.49891358 32.6412064,7.41974333 32.6717022,7.35095605 C32.8647003,6.91400544 33.102909,6.50474279 33.3974178,6.12857591 C33.606197,5.86164667 33.8972936,5.72796575 34.1937216,5.60791248 C34.8746531,5.33189814 35.5587834,5.06431997 36.2439801,4.79912123 C38.2818696,4.01066333 40.3349004,3.26871254 42.4220524,2.62042493 C43.6440183,2.24101336 44.8544684,1.82201667 46.100959,1.53259097 C47.2380485,1.26825748 48.3491205,0.911991314 49.4717084,0.596608152 C49.5390978,0.577788992 49.6130982,0.583196797 49.7365744,0.572813812" id="Fill-30" fill="#FFFFFF" fill-rule="nonzero"></path>
                <path d="M122.92387,34.6515868 C122.966948,34.7128032 123.006401,34.8032217 123.074217,34.858165 C123.219872,34.9760551 123.373204,35.0878885 123.535919,35.1793886 C123.694583,35.2685092 123.868814,35.3290766 124.033023,35.4008922 C124.06949,35.3305908 124.103824,35.2961971 124.100199,35.2665624 C124.059893,34.9286827 123.893766,34.6554805 123.630819,34.4575548 C123.535919,34.3861718 123.387492,34.3643243 123.26295,34.3630264 C123.101727,34.3610796 122.983795,34.4577711 122.92387,34.6515868 M124.518824,33.3357598 C124.727176,33.5868983 124.878589,33.8769729 124.909938,34.209661 C124.96965,34.8402111 124.985858,35.4660022 124.662772,36.0474493 C124.571072,36.2127119 124.510507,36.3961446 124.440132,36.5728716 C124.366344,36.7582512 124.227087,36.8393682 124.039847,36.817737 C123.835546,36.7943753 123.625914,36.7753398 123.432063,36.7117441 C122.998724,36.5694106 122.60377,36.3515843 122.283671,36.0111089 C122.207964,35.9304245 122.121169,35.860123 122.046102,35.7911194 C121.813438,35.8930024 121.742423,36.0995806 121.642619,36.2791197 C121.476278,36.5780631 121.336381,36.8936626 121.152979,37.1809252 C120.731582,37.84111 120.215712,38.4216919 119.630107,38.9373801 C119.059643,39.439657 118.440556,39.8690367 117.7705,40.2244376 C117.020047,40.6222357 116.259997,40.9942926 115.473076,41.3157326 C114.339826,41.7784243 113.220223,42.275726 112.096569,42.7626447 C111.801421,42.8904852 111.502647,42.9700881 111.180841,43.019191 C110.17853,43.1721237 109.182831,43.3709146 108.231489,43.7447021 C108.121874,43.7877482 108.012047,43.8115425 107.916294,43.7196098 C107.845492,43.6514715 107.932075,43.509787 108.096497,43.4200175 C108.890668,42.9860952 109.733462,42.6620596 110.560048,42.3012509 C112.183152,41.5928285 113.795806,40.8597465 115.422534,40.1601929 C116.532327,39.6825756 117.609491,39.1409299 118.656799,38.5393657 C119.825024,37.8683653 120.778712,36.9687229 121.427442,35.7593215 C121.562007,35.5081831 121.703823,35.2602893 121.85417,35.0184523 C122.025203,34.7433032 122.207111,34.4755087 122.525931,34.3487498 C122.699097,34.2801788 122.750065,34.1023702 122.845391,33.9630652 C123.005334,33.729448 123.152695,33.4796074 123.348253,33.279735 C123.729557,32.8901567 124.172493,32.9184936 124.518824,33.3357598 Z" id="Combined-Shape" fill="#FFFFFF" fill-rule="nonzero"></path>
                <path d="M131.656278,43.6323928 C132.013698,43.4502579 132.299036,43.4682118 132.577764,43.4483111 C133.761557,43.3635167 134.938739,43.2337294 136.076255,42.8666476 C136.470141,42.7394561 136.862535,42.6033957 137.245972,42.4474346 C138.538953,41.9209308 139.811035,41.3500829 140.988643,40.5832562 C141.320898,40.3671604 141.668722,40.1757241 142.010787,39.975419 C142.374178,39.7627841 142.767211,39.6559259 143.181997,39.5877876 C143.569486,39.5241918 143.933944,39.5908159 144.295415,39.6894543 C144.451093,39.7320678 144.593763,39.8467133 144.725129,39.9509757 C144.827066,40.0316602 144.915782,40.1380858 144.987223,40.248405 C145.179368,40.5458342 145.435704,40.718884 145.791204,40.6665364 C146.192981,40.6070506 146.556585,40.4720718 146.756834,40.0634581 C146.924028,39.7221174 147.101885,39.385752 147.289552,39.0558759 C147.338175,38.9706489 147.442244,38.9178687 147.59515,38.7863509 C147.579582,38.9886028 147.577236,39.092649 147.562948,39.195181 C147.513686,39.5488514 147.682372,39.8060466 148.011642,39.8603409 C148.103556,39.8754828 148.200162,39.8778622 148.292715,39.8681282 C148.383563,39.8583941 148.472065,39.825731 148.592342,39.7954473 C148.541374,39.2940356 148.785127,38.8817446 148.961491,38.4499855 C148.985376,38.3911486 149.062362,38.3545918 149.150438,38.2760705 C149.21868,38.4318153 149.303556,38.543865 149.312513,38.6619714 C149.333626,38.9453404 149.370733,39.2438512 149.307608,39.5138088 C149.203965,39.9565998 149.036345,40.3855469 148.871923,40.811033 C148.829058,40.9222174 148.712193,41.0507069 148.604711,41.0807743 C148.317667,41.1610261 148.018466,41.2202956 147.721825,41.2334907 C147.498331,41.243441 147.278889,41.1532388 147.112548,40.9754302 C147.050917,40.909455 146.981608,40.8504018 146.89076,40.7645258 C146.783705,40.9587742 146.697975,41.1257672 146.602009,41.2864871 C146.302809,41.7878988 145.852409,42.0176223 145.284077,42.0273564 C144.945424,42.0331968 144.655181,41.9263386 144.442776,41.6447001 C144.431474,41.6295583 144.418252,41.6157143 144.407802,41.5999235 C143.904088,40.8374231 143.178372,40.8093025 142.398489,40.984299 C142.027421,41.0675792 141.697511,41.2542566 141.372294,41.4500192 C140.676647,41.8685832 139.996356,42.3200268 139.273626,42.6845128 C138.263638,43.1937117 137.228912,43.6683006 136.129995,43.9425844 C135.570194,44.0821058 134.979258,44.1139037 134.40005,44.145269 C134.126014,44.1599782 133.846007,44.0583115 133.568772,44.0105065 C133.050982,43.9211695 132.544709,43.7630453 132.012845,43.7569886 C131.927541,43.7561233 131.842665,43.6996659 131.656278,43.6323928" id="Fill-34" fill="#FFFFFF" fill-rule="nonzero"></path>
                <path d="M22.9212028,12.2320837 C23.1146274,12.4423392 23.1406448,12.6223109 23.103538,12.8204529 C23.0367884,13.1762864 23.0047997,13.5429355 22.9003035,13.8868719 C22.7162622,14.4927623 22.4580073,14.8501101 21.760655,14.8957519 C21.3396845,14.9234399 20.9854636,14.7588263 20.7148398,14.4360886 C20.2891776,13.9292691 20.1386178,13.3222971 20.1844681,12.6744421 C20.2262666,12.0856404 20.3171144,11.5002996 20.3864231,10.9134447 C20.4804697,10.1180648 20.5930697,9.32419904 20.664511,8.52665603 C20.7719928,7.32828654 20.3137022,6.32524694 19.5466147,5.45026417 C19.3248268,5.19717891 19.0962147,4.93760429 18.8006396,4.82382409 C18.6603162,4.83031345 18.6586101,4.92202982 18.6234226,4.98367879 C18.5594453,5.0957285 18.4572949,5.14937392 18.3387237,5.11844128 C17.8987733,5.00401213 17.4737509,4.85086311 17.1171843,4.55105442 C17.0103422,4.46128487 16.9476445,4.34404366 16.9602267,4.20019606 C17.0092759,3.62978084 17.102043,3.06780179 17.2922687,2.52615608 C17.3035714,2.49414188 17.3423843,2.47207804 17.3944191,2.41864893 C17.4639411,2.44244327 17.5545756,2.45888299 17.631135,2.50149649 C18.1416737,2.78594701 18.6571173,3.06239398 19.1559268,3.36696154 C19.9095791,3.82705755 20.4056163,4.51319979 20.7380848,5.32631729 C20.8459932,5.59000184 20.9238322,5.86623249 21.0195848,6.13510854 C21.0417636,6.19740644 21.0814295,6.25321499 21.1142712,6.31399871 C21.2727216,6.23180008 21.2462777,6.10287802 21.2443583,6.00186023 C21.2334822,5.4294982 21.214289,4.85713616 21.1908307,4.28499044 C21.1622542,3.58197585 21.340964,2.92092582 21.6164928,2.29080843 C21.8231394,1.81795 22.3006232,1.65030806 22.7501702,1.90014863 C23.0928751,2.09071966 23.3978335,2.35591839 23.7034316,2.6081384 C23.7772187,2.66892212 23.8318127,2.81644703 23.8179509,2.91248964 C23.7661293,3.26637637 23.7571725,3.63410708 23.5731312,3.99102218 C23.462877,3.9523023 23.3528361,3.93326683 23.264121,3.87853985 C23.055555,3.74940147 22.8646895,3.5899794 22.6524982,3.46819564 C22.4748546,3.3663126 22.2827095,3.28086929 22.0869391,3.22397918 C21.9195319,3.17552525 21.7440209,3.31785867 21.7175769,3.49198998 C21.7032887,3.58565315 21.6983838,3.68320995 21.7069141,3.77752206 C21.8114103,4.91359364 21.6341932,6.02349145 21.41795,7.13144245 C21.3339265,7.56147107 21.2867966,7.99863799 21.2147155,8.43104604 C21.0984902,9.12692233 20.9745875,9.82171706 20.855803,10.5171607 C20.8012091,10.8368701 20.7391511,11.1557143 20.701831,11.4775868 C20.6397731,12.0092822 20.7651685,12.5022576 21.0515735,12.9506728 C21.1880583,13.1643892 21.3791371,13.3162404 21.6107349,13.4166092 C22.0592156,13.6112902 22.4908489,13.4153114 22.6371437,12.9448324 C22.6881122,12.7813004 22.7213804,12.6119279 22.7753346,12.4494775 C22.7966603,12.3852327 22.8523206,12.3324526 22.9212028,12.2320837" id="Fill-36" fill="#FFFFFF" fill-rule="nonzero"></path>
                <path d="M84.877245,19.7112505 C84.8147605,19.3751014 84.9704385,18.8258847 85.2031026,18.2887816 C85.3965272,17.8418806 85.7452034,17.5267138 86.0804443,17.1481674 C85.9232734,17.0356851 85.7693015,17.0614262 85.6328166,17.0339546 C85.4852424,17.0045361 85.3340427,16.9943695 85.1875348,16.9610574 C84.9872859,16.9156318 84.7776537,16.8836176 84.5942522,16.7973091 C84.2645559,16.6422132 84.1570741,16.4228727 84.2022847,16.0560072 C84.2253165,15.8678156 84.2703139,15.6807056 84.3238415,15.498787 C84.6110995,14.5236517 84.9877124,13.593293 85.643906,12.8028883 C85.9414003,12.4442427 86.2826125,12.1664979 86.7477273,12.0544482 C87.2011129,11.9449942 87.561305,12.0899234 87.871808,12.4111469 C87.9812092,12.5247108 88.0432671,12.6618528 87.9980565,12.8277642 C87.8532546,13.3598922 87.7101588,13.8924528 87.5593857,14.4228502 C87.54723,14.4656801 87.4823997,14.4929354 87.4192754,14.5467971 C87.3497534,14.4728184 87.2898281,14.4042474 87.2245712,14.3408679 C86.7918716,13.9205734 86.3532007,13.8654138 85.8435151,14.1779849 C85.6021075,14.3261587 85.3875704,14.5082936 85.2476734,14.7414781 C85.2579098,14.9182051 85.3886367,14.9456768 85.4860954,14.9675243 C86.4346651,15.1790776 87.386647,15.2344536 88.3309516,14.9517335 C88.5427164,14.8883541 88.7474437,14.7786838 88.9344706,14.6571163 C89.2349505,14.4617864 89.5179433,14.2389849 89.8086134,14.0278642 C90.0063032,13.8842329 90.2078316,13.7477399 90.4210892,13.6763569 C90.5927616,13.7544456 90.5639718,13.8777435 90.5279313,13.9807081 C90.3711869,14.4291233 90.2093244,14.8760243 90.0370123,15.3188153 C89.9977729,15.4196168 89.9237725,15.5169573 89.8425214,15.5887729 C88.707991,16.5909473 87.5269705,17.5353662 86.3410451,18.4737285 C85.8537515,18.8594131 85.3901295,19.2760304 84.877245,19.7112505" id="Fill-38" fill="#FFFFFF" fill-rule="nonzero"></path>
                <path d="M114.904063,16.7297331 C115.183217,17.177932 115.78503,17.6244003 116.401771,17.8530423 C116.517783,17.525113 116.408808,17.2185987 116.310923,16.9211694 C116.209199,16.611843 116.079112,16.2994882 115.701859,16.2451939 C115.331431,16.1917647 115.114548,16.4236514 114.904063,16.7297331 M116.923825,15.5075693 C117.134737,16.046403 117.217054,16.6127083 117.140921,17.1919923 C117.094005,17.5491237 117.023203,17.9032267 116.957733,18.2910745 C117.094005,18.4171845 117.243072,18.5339931 117.366121,18.674596 C117.50218,18.8301244 117.624803,19.0005784 117.733991,19.1768729 C117.84979,19.3639829 117.861519,19.5671 117.774723,19.7782207 C117.646342,20.0910082 117.52969,20.4083381 117.41581,20.7036043 C117.221106,20.7239376 117.185066,20.5986928 117.139642,20.5009197 C117.010834,20.222526 116.855156,19.9722528 116.551051,19.8067739 C116.248652,20.3968736 115.976108,20.979186 115.658141,21.5344593 C115.346572,22.0787008 115.007919,22.6093146 114.646021,23.1204603 C114.27346,23.6465315 113.876588,24.1578935 113.456897,24.6463264 C113.049788,25.1202664 112.616875,25.5749546 112.164982,26.0054158 C111.699228,26.4488558 111.206816,26.8654731 110.70758,27.2704095 C110.224551,27.6621509 109.717851,28.0242574 109.197076,28.4177293 C109.034147,28.2877257 109.101963,28.1841121 109.173405,28.0965057 C109.44872,27.7581935 109.724462,27.4198812 110.011081,27.091303 C111.071397,25.8760612 112.14387,24.6716349 113.196722,23.4499037 C114.214174,22.2692718 115.134594,21.0142285 115.920022,19.6609795 C115.957768,19.5958696 115.985279,19.5247029 116.031342,19.4273624 C115.93367,19.3442985 115.843676,19.2534474 115.740459,19.1827133 C115.459812,18.9901955 115.169782,18.8119542 114.891267,18.6166243 C114.721514,18.4976526 114.550695,18.3728405 114.408025,18.2235851 C114.113517,17.9162055 113.966369,17.5588577 114.154036,17.1312086 C114.337224,16.713726 114.513801,16.2925662 114.713624,15.8830873 C114.894466,15.5127608 115.203476,15.2534025 115.544049,15.0442286 C116.119844,14.6905582 116.675807,14.8746399 116.923825,15.5075693 Z" id="Combined-Shape" fill="#FFFFFF" fill-rule="nonzero"></path>
                <path d="M93.7150019,38.0122778 C93.787936,38.2928347 93.548661,38.4991965 93.5316004,38.7922995 C93.7695959,39.2154062 94.132347,39.4001368 94.671249,39.2781367 C94.6648512,39.2017785 94.6825516,39.1174167 94.6494967,39.0689628 C94.5119455,38.8686577 94.5471331,38.6728952 94.6360615,38.4725901 C94.728402,38.2640652 94.8141316,38.0518629 94.9199073,37.8504763 C94.9681035,37.7585436 95.0576717,37.6893237 95.1320986,37.6058272 C95.4048551,37.9501962 95.5509365,38.3730865 95.4571032,38.7853775 C95.3434369,39.2848424 95.1903179,39.779332 95.0064899,40.2571656 C94.8864259,40.5688715 94.5597152,40.6508538 94.2635005,40.7094744 C93.9084266,40.7797759 93.5960042,40.6415524 93.3174898,40.4282686 C93.1995584,40.3378501 93.0989008,40.2238535 92.9758511,40.1068287 C92.8003401,40.2554351 92.7796542,40.4754246 92.69755,40.6560453 C92.515428,41.0566555 92.2407522,41.3456485 91.8372689,41.517833 C91.4717454,41.6737941 91.1407696,41.6262054 90.8287738,41.3893436 C90.7984912,41.3666308 90.7679953,41.3432691 90.7421912,41.3157974 C90.3188749,40.8639213 89.8213449,40.8604603 89.2871347,41.0637938 C88.5757073,41.3344003 87.9242054,41.7062409 87.3622717,42.230798 C86.9195489,42.6441706 86.4774659,43.0586247 86.0326106,43.4698342 C85.9076417,43.5853449 85.7745689,43.6922031 85.6442685,43.8018734 C84.7524253,44.5526929 83.7803972,45.1531756 82.6543972,45.4772112 C82.131063,45.6277645 81.6213774,45.8181192 81.0782103,45.905293 C80.6156546,45.9797044 80.1646148,46.1267967 79.706111,46.2314918 C79.4704614,46.2851372 79.2286273,46.3273181 79.0072659,46.1862825 C79.0000151,46.0311867 79.1126151,46.0173427 79.1898144,46.0076087 C80.1799694,45.8806334 81.0617895,45.4594736 81.9282551,44.9911577 C82.3594619,44.7579732 82.7977063,44.5375511 83.2336048,44.3134517 C84.6560329,43.5823165 85.9116936,42.6205925 87.0481432,41.490794 C87.6137024,40.9285986 88.2150888,40.4113962 88.9241702,40.0363109 C89.2935324,39.840981 89.677396,39.6936724 90.0857843,39.6103922 C90.498651,39.5260304 90.8709988,39.5974135 91.1853404,39.8983037 C91.2128507,39.9244775 91.2390814,39.9521654 91.2682976,39.9759598 C91.6926802,40.3214103 92.0759041,40.3084316 92.4764019,39.9357257 C92.7043742,39.7237398 92.832542,39.4535659 92.9464216,39.165438 C93.0718171,38.848757 93.2287746,38.5439731 93.3889311,38.2430829 C93.4475769,38.1327637 93.5281883,38.013143 93.7150019,38.0122778" id="Fill-42" fill="#FFFFFF" fill-rule="nonzero"></path>
                <path d="M11.1989663,11.2396867 C11.105986,11.6013607 11.0081008,11.870453 10.9748326,12.1475489 C10.9509477,12.3474214 10.9822966,12.5678435 11.0426485,12.7616592 C11.2211451,13.3335886 11.7033205,13.6085214 12.2737845,13.4516951 C12.7275967,13.3270993 13.1470744,13.1146807 13.4874335,12.7720422 C13.5213414,12.7380812 13.5247536,12.6731875 13.5439467,12.6178116 C13.3882687,12.3699178 13.1353452,12.2740915 12.8971365,12.1786979 C12.3224073,11.9491907 11.7551421,11.7099494 11.1989663,11.2396867 M9.8931901,2.10958208 C9.96228556,2.2253091 10.0126143,2.27116728 10.0145337,2.31897227 C10.0320208,2.73061436 10.264045,3.03193723 10.5124901,3.32114662 C10.7099667,3.55130278 10.9138409,3.77799795 11.1334962,3.98587395 C11.5401784,4.37134226 11.8206122,4.84333544 12.0711898,5.33652722 C12.2456345,5.68024728 12.3202747,6.04451699 12.3266724,6.43820517 C12.3396811,7.230773 12.1893345,7.99175926 11.9882326,8.74950084 C11.8912004,9.11528474 11.7321103,9.46700835 11.7127038,9.84858304 C11.86433,10.101452 12.0914493,10.2401081 12.3258194,10.3579982 C12.6117978,10.5016295 12.9105717,10.6188707 13.2020948,10.7514701 C13.390188,10.8371297 13.5812668,10.9188957 13.7601899,11.0220766 C14.0898862,11.2126477 14.2163479,11.5169989 14.1792411,11.8914353 C14.1623937,12.0618893 14.1321112,12.232127 14.0918055,12.3984711 C14.0244161,12.6762159 13.9455108,12.9511487 13.8691646,13.2265141 C13.7363051,13.7062945 13.4690933,14.086355 13.044071,14.342685 C12.8180179,14.4791779 12.5900456,14.6141567 12.3548224,14.7335611 C12.0594607,14.8834654 11.7365887,14.9280257 11.4192614,14.8544796 C10.9407114,14.7435114 10.6285023,14.4229368 10.4939367,13.94705 C10.3732329,13.520266 10.3576651,13.0874254 10.4557636,12.6463648 C10.6796841,11.6385664 11.0262277,10.6701367 11.3550709,9.69608295 C11.5572391,9.0968982 11.6862599,8.4860326 11.7269921,7.85245422 C11.7613266,7.31816312 11.6308129,6.83232596 11.3789557,6.37201364 C11.0936171,5.85091759 10.7272405,5.3929847 10.3175727,4.96836389 C10.1465401,4.79120421 9.97998594,4.60928566 9.81556434,4.42585293 C9.51892303,4.09532792 9.38051886,3.71115748 9.47840409,3.26641963 C9.54749955,2.9514691 9.63749425,2.64106111 9.72898176,2.33195101 C9.7483882,2.26597579 9.81407153,2.21384455 9.8931901,2.10958208 Z" id="Combined-Shape" fill="#FFFFFF" fill-rule="nonzero"></path>
                <path d="M127.016411,14.9508899 C126.643424,14.8931346 126.612715,14.8639324 126.626576,14.5967869 C126.627643,14.5777514 126.628069,14.5584996 126.631268,14.5396805 C126.833863,13.4038252 126.650248,12.2954416 126.37216,11.2009019 C126.156983,10.3529582 125.977847,9.49052148 125.603153,8.69276215 C125.073635,7.56555937 124.410617,6.53375026 123.52965,5.64881712 C123.006742,5.12339483 122.475517,4.61116758 121.849393,4.21574891 C121.594337,4.05459633 121.488561,3.84996501 121.500504,3.55404994 C121.515005,3.19194335 121.506262,2.82897151 121.520123,2.46708123 C121.525668,2.31934 121.527374,2.15688956 121.718666,2.05262708 C121.782004,2.07966611 121.87669,2.09978314 121.946639,2.15321225 C122.381471,2.48590039 122.831018,2.80279773 123.238126,3.1679327 C124.39249,4.20298649 125.314402,5.42168933 125.97934,6.83745256 C126.280672,7.47925081 126.452132,8.16431149 126.642571,8.84136862 C126.807205,9.4269257 126.946463,10.023731 127.042429,10.6246463 C127.223484,11.7600689 127.236066,12.9019809 127.076123,14.0445419 C127.034325,14.3428364 127.035178,14.6474039 127.016411,14.9508899" id="Fill-46" fill="#FFFFFF" fill-rule="nonzero"></path>
                <path d="M137.137979,13.5476512 C137.169967,13.5636583 137.217524,13.5710129 137.231386,13.5969703 C137.617808,14.3138289 138.212157,14.8455243 138.781342,15.4005813 C139.011873,15.625546 139.231955,15.8615426 139.46334,16.0858583 C140.218485,16.8178587 140.514486,17.7393486 140.533893,18.7700762 C140.548821,19.5585341 140.4375,20.3329317 140.181378,21.0776945 C139.859785,22.01411 139.514308,22.9423056 139.181413,23.8748274 C139.079049,24.1616573 138.973487,24.4480547 138.887971,24.7402924 C138.71246,25.3396935 138.884132,25.8806902 139.235794,26.3544139 C139.593427,26.8363575 140.160479,26.8147262 140.528561,26.343382 C140.632844,26.2097011 140.735634,26.0749386 140.841623,25.9427718 C140.849514,25.9328215 140.876811,25.9388782 140.900482,25.9369314 C141.010523,25.9903605 140.981947,26.0941904 140.959555,26.1759564 C140.873612,26.4880949 140.774447,26.796556 140.683599,27.1071803 C140.594458,27.4123968 140.395062,27.6462303 140.17562,27.8517268 C139.692378,28.3046846 139.082461,28.1329327 138.664477,27.7106913 C138.297034,27.3394996 138.172065,26.8614497 138.160336,26.3518182 C138.145621,25.7123994 138.302792,25.1000196 138.517542,24.5084058 C138.84212,23.6137386 139.182906,22.7242629 139.544804,21.8443049 C139.983901,20.7763717 140.027619,19.6995696 139.693231,18.6009201 C139.52689,18.0545155 139.168831,17.6366003 138.781342,17.2420469 C138.395985,16.8500892 137.999753,16.4687309 137.619088,16.0720143 C137.383225,15.8262837 137.144803,15.5775247 136.94754,15.3006451 C136.557278,14.75251 136.644714,14.0607437 137.137979,13.5476512" id="Fill-48" fill="#FFFFFF" fill-rule="nonzero"></path>
                <path d="M99.0068184,8.25847218 C98.7214797,8.25414594 98.5796634,8.11592245 98.4152418,8.02896496 C98.2823824,7.9586635 98.1518687,7.87538331 98.0102657,7.83125562 C97.4602743,7.65972006 96.978952,8.01252523 96.9751133,8.59938018 C96.9721277,9.05688045 96.9746868,9.51719277 97.0224565,9.97101573 C97.0749179,10.4724274 96.9951596,10.960644 96.9435512,11.4508074 C96.8977008,11.8855949 96.8021614,12.3154072 96.7185645,12.7456521 C96.7017171,12.831528 96.6394459,12.9085352 96.5780277,13.0290211 C96.5036008,12.9530955 96.439197,12.9124288 96.4127531,12.8540245 C96.3739402,12.7690138 96.3600785,12.6718897 96.3396057,12.5788754 C96.1636682,11.7757083 95.793453,11.0806972 95.2161648,10.5007643 C94.9632413,10.2465975 94.7107443,9.99199801 94.4354287,9.7146858 C94.3473533,9.78498725 94.2788977,9.83820005 94.2119348,9.89314335 C94.022562,10.0480229 93.8135696,10.0956116 93.5777067,10.022498 C93.3621033,9.95565757 93.1381828,9.91174619 92.9296169,9.82781707 C92.5410616,9.6720723 92.3983922,9.44580975 92.4369919,9.03308611 C92.4798566,8.57753265 92.5562029,8.13301112 92.7701002,7.71271655 C92.9200203,7.41853198 93.0217442,7.32962767 93.3955847,7.49099656 C93.952187,7.73110308 94.4808526,8.01944722 94.9276272,8.44147229 C95.5804087,9.05817832 96.1596163,9.72831346 96.4462345,10.6095693 C96.4568974,10.6422324 96.4893126,10.6692715 96.516183,10.6939311 C96.5281254,10.704963 96.5513705,10.7036651 96.5991402,10.7149133 C96.5620334,10.3110585 96.5400679,9.91390932 96.4863269,9.52108639 C96.3769258,8.71943344 96.5784542,7.96731598 96.8352164,7.22796094 C96.9512285,6.89397493 97.2250512,6.66879395 97.5167876,6.48795697 C97.7151172,6.36509165 97.9447956,6.34930086 98.173621,6.39018386 C98.4956399,6.44750659 98.778846,6.5915705 99.0343286,6.79512027 C99.1784907,6.91019835 99.2580358,7.05577645 99.220929,7.24375173 C99.1550324,7.57773774 99.0808188,7.91020957 99.0068184,8.25847218" id="Fill-50" fill="#FFFFFF" fill-rule="nonzero"></path>
                <path d="M53.0462468,15.4187732 C52.958598,15.580791 52.8976063,15.6932733 52.8338423,15.8111635 C52.4000763,15.8513975 52.0475615,15.6811598 51.7336464,15.430454 C51.5139911,15.2552412 51.4109876,15.0116736 51.4877604,14.7170564 C51.5922566,14.315581 51.6332021,13.8916092 51.8679987,13.5504848 C52.1200691,13.4516302 52.3365256,13.5396692 52.5480771,13.6110523 C53.5868548,13.9612617 54.484456,14.5210776 55.1877795,15.3934646 C55.4946572,15.7741741 55.7190042,16.1758658 55.7964167,16.661054 C55.8134773,16.7692101 55.8399212,16.875852 55.9235182,16.9870365 C55.9412186,16.8501109 55.9759796,16.7131853 55.9736337,16.5766923 C55.9651034,16.0997239 55.9591322,15.6218903 55.9233049,15.1464361 C55.8693508,14.4302265 55.9676625,13.7386764 56.1932891,13.0622682 C56.4773482,12.2104309 57.5707198,11.9266293 58.230752,12.5297077 C58.4135138,12.696917 58.476638,12.9078214 58.4727994,13.14663 C58.4710933,13.241591 58.4672547,13.3380663 58.4512604,13.4315131 C58.406263,13.6928183 58.3546547,13.9530418 58.3062452,14.2106696 C58.0537482,14.2439817 57.949252,14.0594674 57.8200179,13.9350879 C57.5705066,13.6949814 57.2762111,13.6069423 56.9422497,13.6186232 C56.5549739,13.6320345 56.3928982,13.7884282 56.3909788,14.179088 C56.3890595,14.5418436 56.3862872,14.905897 56.4146504,15.2667057 C56.4860917,16.1741353 56.3316932,17.0564727 56.1416807,17.9334023 C56.0777034,18.2280195 55.9561466,18.5113884 55.7787163,18.7413283 C55.631142,18.768151 55.5840121,18.6772999 55.5586345,18.5888282 C55.5112913,18.4244309 55.4805822,18.2552748 55.4447549,18.0878492 C55.3554,17.669934 55.1737045,17.2989587 54.9113977,16.9643237 C54.4128015,16.3283659 53.8114151,15.8232769 53.0462468,15.4187732" id="Fill-52" fill="#FFFFFF" fill-rule="nonzero"></path>
                <path d="M16.2194764,41.2830478 C16.0094177,41.3436152 15.8496878,41.2830478 15.695076,41.2179378 C14.7752961,40.8305227 13.8570089,40.4396466 12.9387217,40.0492031 C12.8869001,40.0271393 12.8352918,40.0029123 12.7873088,39.9734938 C12.6619134,39.8960541 12.6209679,39.7831391 12.6659653,39.6293411 C12.687291,39.5564439 12.7201327,39.487224 12.7484959,39.41649 C13.0182668,38.7457059 13.2878244,38.0749218 13.5580217,37.404354 C13.6367138,37.2090241 13.7066623,37.0048254 13.9702487,36.9606978 C14.963176,37.3727725 15.9710313,37.7909039 16.9780337,38.2107659 C17.0469159,38.2395354 17.1125992,38.2791205 17.1746572,38.321734 C17.2776606,38.3920355 17.3245773,38.4958653 17.2940814,38.6180817 C17.2667845,38.7279683 17.2226401,38.8339613 17.1808416,38.9395216 C16.9085117,39.6295575 16.6359685,40.319377 16.3600132,41.0078987 C16.3188545,41.1102143 16.2597821,41.2049591 16.2194764,41.2830478" id="Fill-54" fill="#FFFFFF" fill-rule="nonzero"></path>
                <path d="M45.256395,31.6216805 C45.3195192,31.6132443 45.3421245,31.6024287 45.3561995,31.6093507 C46.2326882,32.0430566 47.1106697,32.4739505 47.9828933,32.9165252 C48.1485944,33.0006706 48.2995808,33.1215891 48.4424634,33.2433729 C48.6034728,33.3802985 48.6471906,33.5617844 48.5486656,33.7579796 C48.4121808,34.0294514 48.2876383,34.3104409 48.1219372,34.5628772 C47.8694402,34.9474803 47.6977679,35.3660443 47.5310004,35.7910978 C47.471075,35.9433816 47.4527349,36.1307079 47.2810625,36.218747 C46.2527344,35.6755871 45.2263257,35.1335087 44.1839226,34.5832106 C44.2035423,34.4449871 44.2001302,34.3286111 44.2376635,34.2278096 C44.4357798,33.6933022 44.6466915,33.16377 44.8480067,32.6305605 C44.9348025,32.3999717 45.0026185,32.1620283 45.0913336,31.9323048 C45.1365442,31.8152799 45.2090518,31.7090706 45.256395,31.6216805" id="Fill-56" fill="#FFFFFF" fill-rule="nonzero"></path>
                <path d="M151.146635,4.56171861 C151.003326,4.93853444 150.925914,5.32789636 150.913118,5.72418028 C150.903948,6.00387193 151.111448,6.23489335 151.384204,6.29243239 C151.682551,6.35516292 151.988789,6.36879059 152.270929,6.23359547 C152.541553,6.10402448 152.799808,5.94654921 153.058489,5.79275124 C153.134622,5.74775831 153.222271,5.68957033 153.16853,5.51868371 C152.854189,5.38781484 152.503167,5.25608072 152.164727,5.09622602 C151.826287,4.93658763 151.500429,4.74904496 151.146635,4.56171861 M151.555023,2.57229547 C151.534977,3.10269294 151.826074,3.33739166 152.174963,3.51109034 C152.460728,3.65364007 152.762061,3.76352666 153.055504,3.88985297 C153.228242,3.96426437 153.403327,4.03478214 153.570521,4.12044176 C153.921116,4.29998087 154.065918,4.57318316 154.006633,4.95605572 C153.951186,5.31340345 153.896805,5.67226536 153.811289,6.02269109 C153.714896,6.41746083 153.527869,6.76442557 153.197533,7.02097182 C152.821774,7.31299326 152.425328,7.56434802 151.969596,7.70300413 C151.618787,7.80964603 151.268192,7.80986235 150.926553,7.65087289 C150.691117,7.54120262 150.535226,7.36317769 150.449496,7.11701443 C150.346279,6.8217483 150.345853,6.52042543 150.384239,6.21434369 C150.493427,5.34217297 150.7214,4.49833914 150.974963,3.66056206 C151.035315,3.46047329 151.099932,3.2616824 151.159431,3.06137732 C151.214025,2.87707934 151.294423,2.71527782 151.555023,2.57229547 Z" id="Combined-Shape" fill="#FFFFFF" fill-rule="nonzero"></path>
                <path d="M160.968832,42.180116 C160.582836,42.0341053 160.223497,41.9231372 159.88655,41.7637151 C159.54747,41.6034278 159.425487,41.2882609 159.599078,40.9542749 C159.957991,40.2635901 160.306454,39.5579798 160.925114,39.0502951 C160.954544,39.0265007 160.98248,39.0007596 161.009991,38.9748021 C161.501763,38.5086494 162.101869,38.5108125 162.656339,39.244976 C162.438603,39.6246039 162.214469,40.0135332 161.908018,40.4020299 C161.768121,40.2828419 161.649977,40.1694943 161.519463,40.0734517 C161.222822,39.855409 160.946226,39.8406998 160.681574,40.0167779 C160.429503,40.1842035 160.430356,40.4005157 160.689251,40.544147 C161.344165,40.9069025 162.015713,40.9531933 162.690887,40.6133669 C162.993713,40.4608668 163.279691,40.2737568 163.573133,40.1024375 C163.684667,40.0375439 163.796414,39.9728665 163.945694,39.8861253 C163.975764,39.9921183 164.029718,40.0795084 164.006473,40.1156326 C163.721774,40.5577747 163.506597,41.0557253 163.005655,41.3207077 C162.381237,41.6512327 161.886479,42.1569706 161.361013,42.6203113 C161.205121,42.7578859 161.046244,42.893081 160.88097,43.0187584 C160.829148,43.0581272 160.751736,43.0628861 160.659608,43.0920882 C160.576225,42.6936412 161.059893,42.5056659 160.968832,42.180116" id="Fill-60" fill="#FFFFFF" fill-rule="nonzero"></path>
                <path d="M83.596228,1.76298507 C83.5825795,1.91786459 83.5923893,1.99097811 83.5685045,2.04981503 C83.3959791,2.47292165 83.2281454,2.89862403 83.0362135,3.31286186 C82.8225294,3.77382312 82.7308287,4.25728085 82.7517279,4.7589088 C82.7704946,5.20732395 82.9020745,5.61528873 83.2434999,5.93845913 C83.5629598,6.24043094 83.8836992,6.2149061 84.1528303,5.85431369 C84.2532746,5.71998383 84.3048829,5.54282415 84.5279504,5.48312199 C84.5970458,5.56770005 84.6757379,5.66374266 84.7657326,5.77406187 C84.6168788,6.11929612 84.4902038,6.45825731 84.3279148,6.77904827 C84.1063401,7.21686413 83.7489204,7.46259477 83.2511772,7.49828628 C82.9873776,7.51710544 82.7732669,7.44528979 82.5841075,7.26293862 C82.072929,6.76974685 81.8741729,6.15715075 81.9004036,5.45543403 C81.9140521,5.08835225 81.995943,4.73446552 82.1352002,4.39918164 C82.4857957,3.55404994 82.8766969,2.72838634 83.378492,1.96220859 C83.414959,1.90618374 83.4789363,1.86876173 83.596228,1.76298507" id="Fill-62" fill="#FFFFFF" fill-rule="nonzero"></path>
                <path d="M155.766136,8.40009177 C155.842908,8.7130955 155.776585,8.98802828 155.691282,9.25993269 C155.526221,9.78686917 155.368197,10.3161851 155.194179,10.8400932 C155.046178,11.2852637 155.025705,11.7354093 155.08691,12.195938 C155.13596,12.5656155 155.282468,12.8924632 155.507454,13.1810236 C155.586999,13.2833393 155.691282,13.3741904 155.801323,13.4416798 C156.028229,13.5812012 156.243193,13.5264742 156.386929,13.3025911 C156.44792,13.2074137 156.48588,13.0970945 156.540901,12.9973746 C156.582486,12.921449 156.634521,12.8513639 156.712999,12.7306617 C156.751599,12.8392504 156.786573,12.887488 156.781029,12.9298852 C156.728567,13.3259528 156.673333,13.7215878 156.60893,14.1157086 C156.59059,14.2271094 156.546445,14.3359144 156.502514,14.4410421 C156.259614,15.0231382 155.665265,15.1468688 155.226594,14.6930458 C154.931872,14.3882619 154.753802,14.0088504 154.639496,13.5982898 C154.444152,12.8963568 154.482112,12.189016 154.683,11.5069837 C154.973031,10.5214654 155.320641,9.55346833 155.647778,8.57919826 C155.669743,8.51343935 155.72583,8.45957762 155.766136,8.40009177" id="Fill-64" fill="#FFFFFF" fill-rule="nonzero"></path>
                <path d="M101.203926,16.2732712 C101.156156,16.4534592 101.108387,16.6336473 101.060617,16.8138353 C100.845227,17.6269528 100.662465,18.4439639 100.700638,19.2960176 C100.713007,19.5700852 100.773146,19.824252 100.909631,20.0589507 C101.096871,20.3808232 101.387754,20.4338197 101.659444,20.1792203 C101.781854,20.0647911 101.866731,19.9101279 101.974426,19.7786101 C102.053544,19.6819186 102.142259,19.5934469 102.237159,19.490266 C102.330992,19.6801881 102.293886,19.8216562 102.229268,19.9659364 C102.089585,20.2782912 101.955232,20.5934581 101.819174,20.9075434 C101.702309,21.1772847 101.517201,21.3894869 101.28539,21.5618877 C101.031614,21.7507283 100.8271,21.8121609 100.460297,21.5486927 C100.224434,21.3791039 100.060652,21.1353201 100.01864,20.8404866 C99.9785479,20.5588481 99.9459195,20.2696388 99.9636199,19.987135 C100.016081,19.1463296 100.163442,18.3210986 100.436838,17.5222577 C100.624079,16.974339 100.820276,16.6042288 101.203926,16.2732712" id="Fill-66" fill="#FFFFFF" fill-rule="nonzero"></path>
                <path d="M112.084158,10.2984475 C112.009304,10.5074051 111.93509,10.7165789 111.859597,10.9253202 C111.633331,11.5504624 111.394482,12.1714947 111.184637,12.802261 C111.052204,13.1998428 110.98972,13.6151622 111.006354,14.0402156 C111.01723,14.3157973 111.092936,14.5660705 111.249254,14.7884395 C111.432442,15.049312 111.697522,15.0735389 111.91867,14.8392728 C112.006532,14.7464749 112.055581,14.6160387 112.122757,14.5031237 C112.190147,14.3899924 112.251138,14.271886 112.330044,14.1678398 C112.352862,14.1377724 112.440724,14.1260916 112.475272,14.1466412 C112.513658,14.1695703 112.546287,14.2400881 112.543514,14.2876768 C112.539676,14.3614392 112.508327,14.4349854 112.480603,14.5055031 C112.34881,14.8412196 112.227253,15.1821276 112.077333,15.509408 C111.92592,15.8401493 111.731643,16.1371459 111.381047,16.3017595 C111.141985,16.4140255 110.948774,16.3811461 110.763027,16.2070148 C110.503919,15.9638799 110.351226,15.6640712 110.314973,15.3097518 C110.27424,14.9097906 110.289382,14.5115599 110.37895,14.1172228 C110.65981,12.8827291 111.154354,11.7328136 111.725885,10.6138307 C111.792208,10.483827 111.891799,10.3713447 111.976036,10.2508588 C112.012076,10.2666496 112.048117,10.2826567 112.084158,10.2984475" id="Fill-68" fill="#FFFFFF" fill-rule="nonzero"></path>
                <path d="M56.2879967,26.1987773 C56.3477089,26.4737101 56.265818,26.662118 56.1894717,26.8496607 C56.0606642,27.166558 55.9169285,27.4778312 55.8002766,27.7992711 C55.7032444,28.0662004 55.6151691,28.3400516 55.5612149,28.6184454 C55.4985172,28.9426973 55.5633475,29.2639209 55.704524,29.5602686 C55.7601842,29.6768609 55.8480463,29.7841517 55.9416664,29.8739213 C56.1133388,30.0385349 56.3355532,30.010198 56.4731043,29.8075134 C56.5468915,29.699141 56.5906093,29.5700027 56.6528805,29.4531941 C56.696385,29.3714281 56.7484199,29.2942046 56.7863797,29.2316904 C56.9710608,29.19535 57.0053953,29.3199458 57.0393032,29.4224778 C57.0619085,29.4910487 57.0627616,29.5756268 57.0469805,29.6470098 C56.9177464,30.2288896 56.7343449,30.7850282 56.3044176,31.2226277 C56.0732464,31.4579754 55.8094467,31.4936669 55.5528978,31.2899008 C55.2965622,31.0859184 55.1152933,30.8265601 55.0327626,30.4966841 C54.903955,29.9801306 54.9741167,29.4685523 55.08693,28.9680059 C55.2933634,28.052789 55.6588869,27.1959765 56.1026759,26.3737739 C56.1331717,26.3175327 56.1990683,26.2809759 56.2879967,26.1987773" id="Fill-70" fill="#FFFFFF" fill-rule="nonzero"></path>
                <path d="M104.084823,32.348511 C103.919335,32.6835786 103.758325,33.0212419 103.586653,33.3528485 C103.438012,33.6401111 103.27679,33.9208843 103.121325,34.2044696 C102.938563,34.5380229 102.936004,34.898399 102.968633,35.2637503 C102.972045,35.3018213 102.976097,35.3407574 102.987612,35.3766653 C103.053083,35.5804313 103.131775,35.788091 103.362093,35.840006 C103.601155,35.894084 103.742118,35.7177896 103.871992,35.5514455 C103.929998,35.4772504 103.967958,35.3872646 104.020632,35.3085269 C104.077145,35.2239489 104.171192,35.1514843 104.251803,35.2204879 C104.302772,35.2643992 104.319406,35.4002433 104.294668,35.4757362 C104.188466,35.8015024 104.069468,36.1238075 103.939381,36.4407049 C103.794792,36.7926448 103.500497,37.0091733 103.193406,37.1947692 C103.016189,37.3018437 102.82639,37.2337054 102.6673,37.1086769 C102.323528,36.8389356 102.19664,36.4603893 102.22479,36.0450699 C102.248035,35.7056761 102.314572,35.3630376 102.410964,35.0368388 C102.623369,34.3167356 102.994863,33.6725579 103.416687,33.0595292 C103.597316,32.7969262 103.744037,32.5046884 104.084823,32.348511" id="Fill-72" fill="#FFFFFF" fill-rule="nonzero"></path>
                <path d="M8.22549444,21.8183907 C8.24084898,22.1441569 8.1246236,22.3676073 8.05766072,22.5986288 C7.95721639,22.9455935 7.82926184,23.2843384 7.72817774,23.6313031 C7.60448834,24.0554913 7.54925463,24.4857362 7.64415425,24.9285273 C7.69064441,25.1446231 7.7917285,25.3183218 7.95231147,25.4587084 C8.10926905,25.596283 8.32956414,25.5980135 8.45410657,25.4314531 C8.57651643,25.2681374 8.65520848,25.0712933 8.75352022,24.8893748 C8.80662136,24.7916017 8.84223538,24.6702505 8.99535433,24.699669 C9.09963729,24.8420024 9.04056494,24.9901762 9.00068577,25.1333749 C8.92433955,25.4078751 8.85801644,25.6879994 8.75202742,25.951035 C8.64625166,26.2127727 8.51616453,26.469319 8.36133952,26.704234 C8.18710807,26.9692164 7.96361412,27.0159398 7.66995842,26.8880993 C7.2743656,26.7161312 7.05556331,26.4052905 6.99499816,25.9743967 C6.9329402,25.5322546 6.98284247,25.0991976 7.09800157,24.6730626 C7.34175499,23.7712571 7.65183153,22.8941112 8.0657645,22.0567667 C8.09753988,21.9927383 8.14530958,21.9369298 8.22549444,21.8183907" id="Fill-74" fill="#FFFFFF" fill-rule="nonzero"></path>
                <path d="M164.919578,41.2112754 C164.904437,41.3237577 164.916379,41.4046585 164.883111,41.4550592 C164.716557,41.7090097 164.548083,41.9627439 164.360416,42.2002547 C164.256987,42.3311236 164.12626,42.4481485 163.987429,42.5396485 C163.719791,42.7161593 163.442343,42.878826 163.160629,43.0315424 C162.51254,43.3830497 161.885989,43.7667875 161.305288,44.2255857 C161.189489,44.317302 161.062814,44.3947418 160.95448,44.4695858 C160.802214,44.3964723 160.842519,44.3012949 160.883678,44.2201779 C161.237046,43.5255994 161.735002,42.9655672 162.407617,42.5766379 C163.158923,42.1427157 163.913855,41.7154991 164.669,41.2884988 C164.728499,41.2547541 164.802073,41.2465343 164.919578,41.2112754" id="Fill-76" fill="#FFFFFF" fill-rule="nonzero"></path>
                <path d="M101.179335,4.40108519 C101.20317,4.40812944 101.227005,4.41517369 101.250841,4.42221795 C101.236606,4.47085684 101.222702,4.51983117 101.208467,4.56847006 C101.166094,4.554717 101.123719,4.54096393 101.081346,4.52721086 C101.114119,4.48528079 101.146561,4.44301527 101.179335,4.40108519" id="Fill-78" fill="#FFFFFF" fill-rule="nonzero"></path>
            </g>
        </g>
    </g>
</svg>