<?xml version="1.0" encoding="UTF-8"?>
<svg width="382px" height="308px" viewBox="0 0 382 350" version="1.1" xmlns="http://www.w3.org/2000/svg" xmlns:xlink="http://www.w3.org/1999/xlink">
  <title>logo_ramadhan@1x</title>
  <defs>
    <filter id="filter-1">
      <feColorMatrix in="SourceGraphic" type="matrix"
        values="0 0 0 0 0.847000 0 0 0 0 0.847000 0 0 0 0 0.847000 0 0 0 1.000000 0"></feColorMatrix>
    </filter>
    <polygon id="path-2"
      points="341.52437 11.1650578 341.52437 11.0497921 312.756557 20.3671053 312.756557 20.3059796 312.739097 20.3723447 300.942826 24.1935783 300.942826 24.2023106 298.987258 24.8327792 298.987258 137.812406 31.5073557 221.292739 31.6592615 228.491608 0.0192064789 238.633245 4.65239458e-15 239 49.6277955 223.145723 49.6277955 223.105554 312.71989 140.435575 312.71989 140.203297 312.71989 133.507406 312.71989 28.4496781 341.52437 19.1585616 341.52437 11.5353053 376 0.415655211 376 0">
    </polygon>
    <polygon id="path-4"
      points="0.00350989151 10.7890484 0.1035418 18 13.8851308 13.9718604 13.8851308 6.42209335 33 0.407263048 33 0 0.0210593491 10.4314098 0.0157945118 10.5238141 0 10.5272364 0.00350989151 10.7377127 0 10.7907596">
    </polygon>
    <polygon id="path-6"
      points="13.911455 6.56452802 33 0.416851032 33 2.48899557e-14 0.0193044033 10.6769912 0.00350989151 10.9589786 1.24696396e-14 10.9607301 1.24696396e-14 19 13.911455 14.426899">
    </polygon>
    <path
      d="M50.0586481,0 L0.410646222,15.9345721 L0.40540393,16.0413159 L0.0104845844,16.1673085 L0.0104845844,241.520936 L0,241.527935 L0.0244640302,249 L98.0780446,217.274347 L98.0780446,216.822874 L98.0780446,210.332502 L98.0780446,125.595436 L109.307035,121.950398 L109.307035,206.068 L109.307035,212.301137 L109.307035,213.541815 L160,196.664048 L160,195.440869 L160,189.722202 L160,105.357865 L160,98.4177688 L98.0780446,118.15312 L98.0780446,87.8046369 L98.0780446,80.8610412 L39.8641373,99.5517028 L39.8641373,80.556559 L26.0384653,84.5480765 L26.1485535,103.954446 L26.1048677,103.968446 L26.1048677,111.493007 L26.1188471,111.44751 L26.1188471,233.558899 L13.7575221,237.102443 L13.7575221,12.0252997 L50.0586481,0.416475747 L50.0586481,0 Z M39.8641373,109.643365 L39.8641373,106.960771 L84.3327545,92.2878758 L84.3327545,214.750994 L39.8641373,229.138657 L39.8641373,109.643365 Z M121.928727,117.556404 L146.256457,109.823605 L146.256457,194.128445 L121.928727,201.733502 L121.928727,117.556404 Z"
      id="path-8"></path>
    <polygon id="path-10"
      points="0.156521739 27.9309171 0.156521739 133.971938 0.16 133.971938 0.16 134 4.67304348 132.484627 13.8365217 129.471421 13.8365217 129.411788 52 116.60829 52 116.578474 52 109.6488 52 4.73378621 38.3217391 9.17116268 38.3217391 114.098454 13.426087 122.061177 13.426087 24.1968561 13.426087 5.7142184 13.426087 0 1.2357265e-14 3.49377626 0.156521739 27.9431945">
    </polygon>
    <polygon id="path-12" points="35 110.480942 2.48702393e-14 122 2.48702393e-14 11.2666619 35 0"></polygon>
    <polygon id="path-14" points="32 107.676437 0 118 0 10.1006523 32 0"></polygon>
    <polygon id="path-16" points="16 74.9025252 0 80 0 4.98757033 16 0"></polygon>
    <polygon id="path-18" points="13 68.7660316 0 73 0 4.14276447 13 0"></polygon>
    <polygon id="path-20" points="16 106.888976 0 112 0 5.00082772 16 0"></polygon>
    <polygon id="path-22" points="13 90.7687059 0 95 0.417528579 4.0070268 13 0"></polygon>
  </defs>
  <g id="Page-1" stroke="none" stroke-width="1" fill="none" fill-rule="evenodd">
    <g id="ramadan_Quize_1440-Copy-5" transform="translate(-820.000000, -350.000000)">
      <g id="logo_ramadhan" transform="translate(820.000000, 350.000000)">
        <g filter="url(#filter-1)" id="Caligrafi" opacity="0.0924246652">
          <g transform="translate(41.000000, 8.000000)">
            <circle id="Oval" fill="#FFFFFF" fill-rule="nonzero" cx="146.351814" cy="146.351814"
              r="146.351814">
            </circle>
          </g>
        </g>
        <g id="Group-107">
          <polygon id="Fill-1" fill="#FFFFFF"
            points="341.52437 80.1650578 341.52437 80.0497921 312.758303 89.3671053 312.758303 89.3059796 312.740843 89.3723447 300.944572 93.1935783 300.944572 93.2023106 298.987258 93.8327792 298.987258 206.812406 31.5073557 290.290992 31.6592615 297.491608 0.0192064789 307.633245 0 308 49.6277955 292.145723 49.6277955 292.105554 312.71989 209.435575 312.71989 209.201551 312.71989 202.50566 312.71989 97.4496781 341.52437 88.1585616 341.52437 80.5353053 376 69.4156552 376 69">
          </polygon>
          <polygon id="Fill-2" fill="#FFA500"
            points="154.00351 67.7890484 154.103542 75 167.885131 70.9718604 167.885131 63.4220934 187 57.407263 187 57 154.021059 67.4314098 154.015795 67.5238141 154 67.5289476 154.00351 67.7394239 154 67.7907596">
          </polygon>
          <polygon id="Fill-3" fill="#FFA500"
            points="77.911455 120.564528 97 114.416851 97 114 64.0193044 124.676991 64.0035099 124.958979 64 124.96073 64 133 77.911455 128.426899">
          </polygon>
          <path
            d="M179.061596,0 L129.414137,15.9345721 L129.4054,16.0413159 L129.013979,16.1673085 L129.013979,241.520936 L129,241.527935 L129.026211,249 L227.078721,217.274347 L227.078721,216.822874 L227.078721,210.332502 L227.078721,125.595436 L238.307588,121.952148 L238.307588,206.068 L238.307588,212.301137 L238.307588,213.541815 L289,196.665798 L289,195.440869 L289,189.722202 L289,105.357865 L289,98.4177688 L227.078721,118.15312 L227.078721,87.8046369 L227.078721,80.8610412 L168.865449,99.5517028 L168.865449,80.556559 L155.039928,84.5480765 L155.151763,103.954446 L155.104583,103.968446 L155.104583,111.494757 L155.118562,111.44751 L155.118562,233.558899 L142.759119,237.102443 L142.759119,12.0252997 L179.061596,0.416475747 L179.061596,0 Z M168.865449,109.643365 L168.865449,106.960771 L213.333581,92.2878758 L213.333581,214.750994 L168.865449,229.138657 L168.865449,109.643365 Z M252.052728,117.488158 L275.256607,109.823605 L275.256607,194.130195 L252.052728,201.661757 L252.052728,117.488158 Z"
            id="Fill-4" fill="#FFFFFF"></path>
          <polygon id="Fill-5" fill="#FFFFFF"
            points="64.1565165 165.578067 64.1565165 270.972109 64.1599946 270.972109 64.1599946 271 68.6746263 269.495616 77.836059 266.49905 77.836059 266.439781 116 253.714401 116 253.684766 116 246.799115 116 142.522467 102.320458 146.934513 102.320458 251.219878 77.836059 259.134018 77.836059 161.047483 77.836059 142.679355 77.836059 137 64 141.290022 64.1565165 165.590269">
          </polygon>
          <g id="Group-8" transform="translate(6.000000, 69.000000)">
            <mask id="mask-3" fill="white">
              <use xlink:href="#path-2"></use>
            </mask>
            <g id="Clip-7"></g>
            <polygon id="Fill-6" mask="url(#mask-3)"
              points="341.52437 11.1650578 341.52437 11.0497921 312.756557 20.3671053 312.756557 20.3059796 312.739097 20.3723447 300.942826 24.1935783 300.942826 24.2023106 298.987258 24.8327792 298.987258 137.812406 31.5073557 221.292739 31.6592615 228.491608 0.0192064789 238.633245 4.65239458e-15 239 49.6277955 223.145723 49.6277955 223.105554 312.71989 140.435575 312.71989 140.203297 312.71989 133.507406 312.71989 28.4496781 341.52437 19.1585616 341.52437 11.5353053 376 0.415655211 376 0">
            </polygon>
          </g>
          <g id="Group-11" transform="translate(161.000000, 57.000000)">
            <mask id="mask-5" fill="white">
              <use xlink:href="#path-4"></use>
            </mask>
            <g id="Clip-10"></g>
            <polygon id="Fill-9" mask="url(#mask-5)"
              points="0.00350989151 10.7890484 0.1035418 18 13.8851308 13.9718604 13.8851308 6.42209335 33 0.407263048 33 0 0.0210593491 10.4314098 0.0157945118 10.5238141 0 10.5272364 0.00350989151 10.7377127 0 10.7907596">
            </polygon>
          </g>
          <g id="Group-14" transform="translate(70.000000, 114.000000)">
            <mask id="mask-7" fill="white">
              <use xlink:href="#path-6"></use>
            </mask>
            <g id="Clip-13"></g>
            <polygon id="Fill-12" mask="url(#mask-7)"
              points="13.911455 6.56452802 33 0.416851032 33 2.48899557e-14 0.0193044033 10.6769912 0.00350989151 10.9589786 1.24696396e-14 10.9607301 1.24696396e-14 19 13.911455 14.426899">
            </polygon>
          </g>
          <g id="Group-17" transform="translate(135.000000, 0.000000)">
            <mask id="mask-9" fill="white">
              <use xlink:href="#path-8"></use>
            </mask>
            <g id="Clip-16"></g>
            <path
              d="M50.0586481,0 L0.410646222,15.9345721 L0.40540393,16.0413159 L0.0104845844,16.1673085 L0.0104845844,241.520936 L0,241.527935 L0.0244640302,249 L98.0780446,217.274347 L98.0780446,216.822874 L98.0780446,210.332502 L98.0780446,125.595436 L109.307035,121.950398 L109.307035,206.068 L109.307035,212.301137 L109.307035,213.541815 L160,196.664048 L160,195.440869 L160,189.722202 L160,105.357865 L160,98.4177688 L98.0780446,118.15312 L98.0780446,87.8046369 L98.0780446,80.8610412 L39.8641373,99.5517028 L39.8641373,80.556559 L26.0384653,84.5480765 L26.1485535,103.954446 L26.1048677,103.968446 L26.1048677,111.493007 L26.1188471,111.44751 L26.1188471,233.558899 L13.7575221,237.102443 L13.7575221,12.0252997 L50.0586481,0.416475747 L50.0586481,0 Z M39.8641373,109.643365 L39.8641373,106.960771 L84.3327545,92.2878758 L84.3327545,214.750994 L39.8641373,229.138657 L39.8641373,109.643365 Z M121.928727,117.556404 L146.256457,109.823605 L146.256457,194.128445 L121.928727,201.733502 L121.928727,117.556404 Z"
              id="Fill-15" mask="url(#mask-9)"></path>
          </g>
          <g id="Group-20" transform="translate(70.000000, 137.000000)">
            <mask id="mask-11" fill="white">
              <use xlink:href="#path-10"></use>
            </mask>
            <g id="Clip-19"></g>
            <polygon id="Fill-18" mask="url(#mask-11)"
              points="0.156521739 27.9309171 0.156521739 133.971938 0.16 133.971938 0.16 134 4.67304348 132.484627 13.8365217 129.471421 13.8365217 129.411788 52 116.60829 52 116.578474 52 109.6488 52 4.73378621 38.3217391 9.17116268 38.3217391 114.098454 13.426087 122.061177 13.426087 24.1968561 13.426087 5.7142184 13.426087 0 1.2357265e-14 3.49377626 0.156521739 27.9431945">
            </polygon>
          </g>
          <g id="Group-23" transform="translate(173.000000, 100.000000)">
            <mask id="mask-13" fill="white">
              <use xlink:href="#path-12"></use>
            </mask>
            <g id="Clip-22"></g>
            <polygon id="Fill-21" mask="url(#mask-13)"
              points="35 110.480942 2.48702393e-14 122 2.48702393e-14 11.2666619 35 0"></polygon>
          </g>
          <g id="Group-26" transform="translate(175.000000, 102.000000)">
            <mask id="mask-15" fill="white">
              <use xlink:href="#path-14"></use>
            </mask>
            <g id="Clip-25"></g>
            <polygon id="Fill-24" mask="url(#mask-15)" points="32 107.676437 0 118 0 10.1006523 32 0">
            </polygon>
          </g>
          <g id="Group-29" transform="translate(255.000000, 116.000000)">
            <mask id="mask-17" fill="white">
              <use xlink:href="#path-16"></use>
            </mask>
            <g id="Clip-28"></g>
            <polygon id="Fill-27" mask="url(#mask-17)" points="16 74.9025252 0 80 0 4.98757033 16 0">
            </polygon>
          </g>
          <g id="Group-32" transform="translate(257.000000, 121.000000)">
            <mask id="mask-19" fill="white">
              <use xlink:href="#path-18"></use>
            </mask>
            <g id="Clip-31"></g>
            <polygon id="Fill-30" mask="url(#mask-19)" points="13 68.7660316 0 73 0 4.14276447 13 0">
            </polygon>
          </g>
          <g id="Group-35" transform="translate(82.000000, 141.000000)">
            <mask id="mask-21" fill="white">
              <use xlink:href="#path-20"></use>
            </mask>
            <g id="Clip-34"></g>
            <polygon id="Fill-33" mask="url(#mask-21)" points="16 106.888976 0 112 0 5.00082772 16 0">
            </polygon>
          </g>
          <g id="Group-38" transform="translate(83.000000, 156.000000)">
            <mask id="mask-23" fill="white">
              <use xlink:href="#path-22"></use>
            </mask>
            <g id="Clip-37"></g>
            <polygon id="Fill-36" mask="url(#mask-23)" points="13 90.7687059 0 95 0.417528579 4.0070268 13 0">
            </polygon>
          </g>
        </g><text id="1443"
          transform="translate(221.115783, 263.931050) rotate(-17.000000) translate(-221.115783, -263.931050)"
          font-family="Helvetica-Bold, Helvetica" font-size="28" font-weight="bold" letter-spacing="12.396521"
          fill="#FFFFFF">
          <tspan x="165.17821" y="274.93105">1443</tspan>
        </text>
      </g>
    </g>
  </g>
</svg>