<?xml version="1.0" encoding="UTF-8"?>
<svg width="49px" height="54px" viewBox="0 0 49 54" class="jss188">
   <title>ramadan-fanos@1.5x</title>
   <desc>Created with sketchtool.</desc>
   <g id="ramadan-fanos" stroke="none" stroke-width="1" fill="none" fill-rule="evenodd">
      <g id="Quiz_home_op_1" transform="translate(-183.000000, -786.000000)">
         <g id="icon1" transform="translate(183.000000, 786.000000)">
            <circle id="Oval" fill-opacity="0.473307292" fill="#BCDE98" fill-rule="nonzero" cx="30.0877193" cy="18.9122807" r="18.9122807"></circle>
            <g id="arabian-lantern" transform="translate(0.000000, 8.596491)" fill="#4F801A">
               <path d="M31.7702329,15.5439576 L29.9802802,11.7223271 C29.9148538,11.5826585 29.7730809,11.4932891 29.6170932,11.4932891 L27.9900944,11.4932891 C26.4606234,9.01702477 24.013112,7.33376268 21.335714,6.85564125 C21.7228122,6.46605396 21.9621127,5.93317873 21.9621127,5.3459209 C21.9621127,4.29019316 21.1892342,3.40958482 20.1721599,3.22360747 L20.1721599,0.394413051 C20.1721599,0.176604244 19.993014,0 19.7720706,0 C19.5511271,0 19.3719812,0.176604244 19.3719812,0.394413051 L19.3719812,3.22370027 C18.3548128,3.40958482 17.5819343,4.29028597 17.5819343,5.3460137 C17.5819343,5.93317873 17.8212348,6.46605396 18.2084272,6.85573406 C15.5310292,7.33385548 13.0835178,9.01711758 11.5539526,11.4933819 L9.92685972,11.4933819 C9.7707778,11.4933819 9.62900496,11.5827513 9.56367271,11.7224199 L7.77371996,15.5440504 C7.77306099,15.5454424 7.77315513,15.5467416 7.77259029,15.5481337 C7.75009115,15.5975049 7.73691174,15.6517947 7.73691174,15.7094254 L7.73691174,36.7277433 C7.73691174,36.7854668 7.75018529,36.8399422 7.77277857,36.8894063 C7.77324926,36.8906127 7.77306099,36.8917264 7.77362582,36.8930256 L9.48563175,40.5512298 L7.77484962,44.1395534 C7.71657778,44.2616822 7.72580337,44.4047846 7.7991374,44.5187467 C7.87256557,44.6326161 7.99993519,44.7017544 8.13690696,44.7017544 L31.4069518,44.7017544 C31.5437353,44.7017544 31.6710108,44.6328945 31.7444389,44.5192107 C31.8178671,44.4054342 31.827281,44.2627031 31.7694798,44.1404814 L30.0695236,40.5510442 L31.7706095,36.891912 C31.7710802,36.8907983 31.7707978,36.8899631 31.7712684,36.8888495 C31.7937676,36.839571 31.806947,36.7851884 31.806947,36.7276505 L31.806947,15.7092398 C31.806947,15.6519803 31.7939559,15.5978761 31.771645,15.5487833 C31.7710802,15.5470201 31.770986,15.545628 31.7702329,15.5439576 Z M29.3720502,40.1582088 L23.5308396,40.1582088 L24.437395,37.1220636 L30.7835655,37.1220636 L29.3720502,40.1582088 Z M10.1829169,40.1582088 L8.7620819,37.1220636 L15.1106058,37.1220636 L16.0206444,40.1582088 L10.1829169,40.1582088 Z M22.7775419,12.2821152 L23.611893,15.3149196 L15.9320599,15.3149196 L16.7681055,12.2821152 L22.7775419,12.2821152 Z M11.2102523,19.3381183 L8.53699633,22.006021 L8.53699633,16.6699372 L11.2102523,19.3381183 Z M31.0068624,29.3092514 L27.7714103,32.5387055 L24.5372761,29.3114787 L24.5362406,23.1461995 L27.7763055,19.9041242 L31.0068624,23.1278245 L31.0068624,29.3092514 Z M15.8091148,30.3757443 L19.1521674,33.0981224 L15.8092089,35.8217997 L15.8091148,30.3757443 Z M15.0090302,35.8217997 L12.3356801,33.0989576 L15.0089361,30.3757443 L15.0090302,35.8217997 Z M15.8091148,29.2879067 L15.8090207,23.1512109 L19.7695288,19.8567019 L23.736156,23.1598416 L23.7370974,29.2860507 L19.7728237,32.5821373 L15.8091148,29.2879067 Z M15.8090207,22.0689415 L15.8089265,16.6140698 L19.1495315,19.3404384 L15.8090207,22.0689415 Z M20.3899027,19.340624 L23.7351205,16.613977 L23.7360619,22.0688487 L20.3899027,19.340624 Z M23.7372857,30.3757443 L23.7382271,35.8217997 L20.3935741,33.0980296 L23.7372857,30.3757443 Z M24.5374644,30.3757443 L27.20912,33.0999785 L24.5384058,35.8217997 L24.5374644,30.3757443 Z M24.5360523,22.0689415 L24.5352051,16.6140698 L27.2139211,19.3430369 L24.5360523,22.0689415 Z M19.7698113,18.8243605 L16.5026344,16.1037457 L23.0404712,16.1037457 L19.7698113,18.8243605 Z M15.0088419,22.0689415 L12.334927,19.3381183 L15.0087478,16.613977 L15.0088419,22.0689415 Z M15.0088419,23.129495 L15.0089361,29.3088802 L11.7732015,32.5377775 L8.53699633,29.3091586 L8.53699633,23.1284741 L11.7725426,19.8992985 L15.0088419,23.129495 Z M11.2108171,33.0990505 L8.53699633,35.7671387 L8.53699633,30.431519 L11.2108171,33.0990505 Z M11.7732957,33.6601378 L14.4526706,36.3332375 L9.0945797,36.3332375 L11.7732957,33.6601378 Z M19.7729178,33.6140147 L23.0447075,36.3332375 L16.5024461,36.3332375 L19.7729178,33.6140147 Z M27.7715986,33.6611587 L30.4493732,36.3331447 L25.0945771,36.3331447 L27.7715986,33.6611587 Z M31.0068624,35.7672315 L28.3337947,33.0998857 L31.0068624,30.4318902 L31.0068624,35.7672315 Z M28.3379369,19.3422016 L31.0068624,16.6716077 L31.0068624,22.005557 L28.3379369,19.3422016 Z M27.7755524,18.7809287 L25.0926002,16.1036529 L30.4510677,16.1036529 L27.7755524,18.7809287 Z M11.7726367,18.7768453 L9.09439142,16.1036529 L14.4510703,16.1036529 L11.7726367,18.7768453 Z M16.8550896,40.1582088 L15.945051,37.1220636 L23.6032322,37.1220636 L22.6966768,40.1582088 L16.8550896,40.1582088 Z M30.0435414,13.7391234 L28.0727482,13.7391234 C27.8518047,13.7391234 27.6726588,13.9157277 27.6726588,14.1335365 C27.6726588,14.3513453 27.8518047,14.5279495 28.0727482,14.5279495 L30.4130357,14.5279495 L30.7815886,15.3148268 L24.4409723,15.3148268 L23.6066212,12.2820224 L29.361036,12.2820224 L30.0435414,13.7391234 Z M18.3820189,5.3459209 C18.3820189,4.5904111 19.0055935,3.97568356 19.7719764,3.97568356 C20.5383594,3.97568356 21.1618398,4.59031829 21.1618398,5.3459209 C21.1618398,6.1015235 20.5383594,6.71615824 19.7719764,6.71615824 C19.0055935,6.71615824 18.3820189,6.1014307 18.3820189,5.3459209 Z M13.4981986,10.276084 L14.7660583,10.276084 C14.9870018,10.276084 15.1661477,10.0994798 15.1661477,9.88167099 C15.1661477,9.66386218 14.9870018,9.48725793 14.7660583,9.48725793 L14.3560844,9.48725793 C15.9099373,8.22643541 17.81521,7.50498434 19.7720706,7.50498434 C21.7289312,7.50498434 23.6341097,8.22643541 25.1879627,9.48725793 L23.9269751,9.48725793 C23.7060316,9.48725793 23.5268858,9.66386218 23.5268858,9.88167099 C23.5268858,10.0994798 23.7060316,10.276084 23.9269751,10.276084 L26.0458484,10.276084 C26.405364,10.649802 26.7381442,11.0564651 27.0391056,11.4931963 L12.5049415,11.4931963 C12.8059028,11.0564651 13.1385889,10.6498948 13.4981986,10.276084 Z M10.1828228,12.2821152 L15.9390262,12.2821152 L15.1029806,15.3149196 L8.76236432,15.3149196 L9.4088146,13.9347523 L11.823754,13.9347523 C12.0446975,13.9347523 12.2238434,13.7581481 12.2238434,13.5403393 C12.2238434,13.3225304 12.0446975,13.1459262 11.823754,13.1459262 L9.77821475,13.1459262 L10.1828228,12.2821152 Z M8.76707125,43.9129283 L9.35703832,42.6754921 L13.5624012,42.6754921 C13.7833447,42.6754921 13.9624906,42.4988879 13.9624906,42.2810791 C13.9624906,42.0632703 13.7833447,41.886666 13.5624012,41.886666 L9.73293405,41.886666 L10.1808459,40.9470349 L29.3740271,40.9470349 L29.8190206,41.886666 L23.391985,41.886666 C23.1710416,41.886666 22.9918957,42.0632703 22.9918957,42.2810791 C22.9918957,42.4988879 23.1710416,42.6754921 23.391985,42.6754921 L30.1925629,42.6754921 L30.7785761,43.9129283 L8.76707125,43.9129283 Z" id="Shape" fill-rule="nonzero"></path>
               <path d="M22.7814925,9.45614035 L21.0606127,9.45614035 C20.8236851,9.45614035 20.6315789,9.64860062 20.6315789,9.88596491 C20.6315789,10.1233292 20.8236851,10.3157895 21.0606127,10.3157895 L22.7814925,10.3157895 C23.0184201,10.3157895 23.2105263,10.1233292 23.2105263,9.88596491 C23.2105263,9.64860062 23.0184201,9.45614035 22.7814925,9.45614035 Z" id="Path"></path>
               <path d="M19.343001,9.45614035 L16.7622622,9.45614035 C16.5253925,9.45614035 16.3333333,9.64860062 16.3333333,9.88596491 C16.3333333,10.1233292 16.5253925,10.3157895 16.7622622,10.3157895 L19.343001,10.3157895 C19.5798706,10.3157895 19.7719298,10.1233292 19.7719298,9.88596491 C19.7719298,9.64860062 19.5799715,9.45614035 19.343001,9.45614035 Z" id="Path"></path>
               <path d="M21.0622992,42.122807 L18.4815604,42.122807 C18.2446908,42.122807 18.0526316,42.3152673 18.0526316,42.5526316 C18.0526316,42.7899959 18.2446908,42.9824561 18.4815604,42.9824561 L21.0622992,42.9824561 C21.2991689,42.9824561 21.4912281,42.7899959 21.4912281,42.5526316 C21.4912281,42.3151662 21.2991689,42.122807 21.0622992,42.122807 Z" id="Path"></path>
               <path d="M20.2017544,23.2105263 C19.9643901,23.2105263 19.7719298,23.3922943 19.7719298,23.6164717 L19.7719298,24.5238791 C19.7719298,24.7480565 19.9643901,24.9298246 20.2017544,24.9298246 C20.4391187,24.9298246 20.6315789,24.7480565 20.6315789,24.5238791 L20.6315789,23.6164717 C20.6315789,23.3921988 20.4391187,23.2105263 20.2017544,23.2105263 Z" id="Path"></path>
               <path d="M20.2017544,25.7894737 C19.9643901,25.7894737 19.7719298,25.9848065 19.7719298,26.2257135 L19.7719298,28.7918303 C19.7719298,29.0327374 19.9643901,29.2280702 20.2017544,29.2280702 C20.4391187,29.2280702 20.6315789,29.0327374 20.6315789,28.7918303 L20.6315789,26.2257135 C20.6315789,25.9847038 20.4391187,25.7894737 20.2017544,25.7894737 Z" id="Path"></path>
               <path d="M13.3245614,24.9298246 C13.5619257,24.9298246 13.754386,24.7480565 13.754386,24.5238791 L13.754386,23.6164717 C13.754386,23.3922943 13.5619257,23.2105263 13.3245614,23.2105263 C13.0871971,23.2105263 12.8947368,23.3922943 12.8947368,23.6164717 L12.8947368,24.5238791 C12.8947368,24.7480565 13.0871971,24.9298246 13.3245614,24.9298246 Z" id="Path"></path>
               <path d="M13.3245614,29.2280702 C13.5619257,29.2280702 13.754386,29.0327374 13.754386,28.7918303 L13.754386,26.2257135 C13.754386,25.9848065 13.5619257,25.7894737 13.3245614,25.7894737 C13.0871971,25.7894737 12.8947368,25.9848065 12.8947368,26.2257135 L12.8947368,28.7918303 C12.8947368,29.0327374 13.0871971,29.2280702 13.3245614,29.2280702 Z" id="Path"></path>
               <path d="M26.2192982,25.7894737 C25.981934,25.7894737 25.7894737,25.9848065 25.7894737,26.2257135 L25.7894737,28.7918303 C25.7894737,29.0327374 25.981934,29.2280702 26.2192982,29.2280702 C26.4566625,29.2280702 26.6491228,29.0327374 26.6491228,28.7918303 L26.6491228,26.2257135 C26.6491228,25.9847038 26.4566625,25.7894737 26.2192982,25.7894737 Z" id="Path"></path>
               <path d="M26.2192982,23.2105263 C25.981934,23.2105263 25.7894737,23.3922943 25.7894737,23.6164717 L25.7894737,24.5238791 C25.7894737,24.7480565 25.981934,24.9298246 26.2192982,24.9298246 C26.4566625,24.9298246 26.6491228,24.7480565 26.6491228,24.5238791 L26.6491228,23.6164717 C26.6491228,23.3921988 26.4566625,23.2105263 26.2192982,23.2105263 Z" id="Path"></path>
               <path d="M6.4757085,18.9122807 L2.98043185,18.9122807 C2.75871795,18.9122807 2.57894737,19.104741 2.57894737,19.3421053 C2.57894737,19.5794696 2.75871795,19.7719298 2.98043185,19.7719298 L6.4757085,19.7719298 C6.6974224,19.7719298 6.87719298,19.5794696 6.87719298,19.3421053 C6.87719298,19.104741 6.6974224,18.9122807 6.4757085,18.9122807 Z" id="Path"></path>
               <path d="M6.46840878,26.6491228 L0.408784198,26.6491228 C0.183039136,26.6491228 0,26.8415831 0,27.0789474 C0,27.3163117 0.183039136,27.5087719 0.408784198,27.5087719 L6.46840878,27.5087719 C6.69415385,27.5087719 6.87719298,27.3163117 6.87719298,27.0789474 C6.87719298,26.8414819 6.69415385,26.6491228 6.46840878,26.6491228 Z" id="Path"></path>
               <path d="M6.42982456,24.9298246 L4.74561404,24.9298246 C4.4985614,24.9298246 4.29824561,25.1222848 4.29824561,25.3596491 C4.29824561,25.5970134 4.4985614,25.7894737 4.74561404,25.7894737 L6.42982456,25.7894737 C6.67687719,25.7894737 6.87719298,25.5970134 6.87719298,25.3596491 C6.87719298,25.1221837 6.67687719,24.9298246 6.42982456,24.9298246 Z" id="Path"></path>
               <path d="M36.9649123,13.3245614 C36.9649123,13.0871971 36.792711,12.8947368 36.5803324,12.8947368 L33.0512465,12.8947368 C32.838868,12.8947368 32.6666667,13.0871971 32.6666667,13.3245614 C32.6666667,13.5619257 32.838868,13.754386 33.0512465,13.754386 L36.5803324,13.754386 C36.792711,13.754386 36.9649123,13.5619257 36.9649123,13.3245614 Z" id="Path"></path>
               <path d="M38.6842105,18.4824561 C38.6842105,18.2450918 38.4936188,18.0526316 38.258559,18.0526316 L33.9519673,18.0526316 C33.7169075,18.0526316 33.5263158,18.2450918 33.5263158,18.4824561 C33.5263158,18.7198204 33.7169075,18.9122807 33.9519673,18.9122807 L38.258559,18.9122807 C38.4936188,18.9122807 38.6842105,18.7198204 38.6842105,18.4824561 Z" id="Path"></path>
               <path d="M36.5350877,15.4736842 L34.8157895,15.4736842 C34.5784252,15.4736842 34.3859649,15.6661445 34.3859649,15.9035088 C34.3859649,16.1408731 34.5784252,16.3333333 34.8157895,16.3333333 L36.5350877,16.3333333 C36.772452,16.3333333 36.9649123,16.1408731 36.9649123,15.9035088 C36.9649123,15.6661445 36.772452,15.4736842 36.5350877,15.4736842 Z" id="Path"></path>
               <path d="M27.0292567,7.73684211 L34.0058311,7.73684211 C34.2157544,7.73684211 34.3859649,7.54438184 34.3859649,7.30701754 C34.3859649,7.06965325 34.2157544,6.87719298 34.0058311,6.87719298 L27.0292567,6.87719298 C26.8193333,6.87719298 26.6491228,7.06965325 26.6491228,7.30701754 C26.6491228,7.54438184 26.8193333,7.73684211 27.0292567,7.73684211 Z" id="Path"></path>
               <path d="M39.162624,36.1052632 L34.7672006,36.1052632 C34.5566688,36.1052632 34.3859649,36.2977234 34.3859649,36.5350877 C34.3859649,36.772452 34.5566688,36.9649123 34.7672006,36.9649123 L39.162624,36.9649123 C39.3731558,36.9649123 39.5438596,36.772452 39.5438596,36.5350877 C39.5438596,36.2976223 39.3731558,36.1052632 39.162624,36.1052632 Z" id="Path"></path>
               <path d="M6.45724945,39.5438596 L2.99889091,39.5438596 C2.76698326,39.5438596 2.57894737,39.7363199 2.57894737,39.9736842 C2.57894737,40.2110485 2.76698326,40.4035088 2.99889091,40.4035088 L6.45724945,40.4035088 C6.68915709,40.4035088 6.87719298,40.2110485 6.87719298,39.9736842 C6.87719298,39.7362188 6.68915709,39.5438596 6.45724945,39.5438596 Z" id="Path"></path>
               <path d="M9.87368421,7.73684211 L14.1964912,7.73684211 C14.4270737,7.73684211 14.6140351,7.54438184 14.6140351,7.30701754 C14.6140351,7.06965325 14.4270737,6.87719298 14.1964912,6.87719298 L9.87368421,6.87719298 C9.64310175,6.87719298 9.45614035,7.06965325 9.45614035,7.30701754 C9.45614035,7.54438184 9.64310175,7.73684211 9.87368421,7.73684211 Z" id="Path"></path>
            </g>
         </g>
      </g>
   </g>
</svg>